<?xml version="1.0" encoding="UTF-8"?>
<!DOCTYPE svg PUBLIC "-//W3C//DTD SVG 1.1//EN" "http://www.w3.org/Graphics/SVG/1.1/DTD/svg11.dtd">
<!-- Creator: CorelDRAW 2019 (64-Bit) -->
<svg xmlns="http://www.w3.org/2000/svg" xml:space="preserve" width="429px" height="480px" version="1.1" style="shape-rendering:geometricPrecision; text-rendering:geometricPrecision; image-rendering:optimizeQuality; fill-rule:evenodd; clip-rule:evenodd"
viewBox="0 0 429 479.76"
 xmlns:xlink="http://www.w3.org/1999/xlink"
 xmlns:xodm="http://www.corel.com/coreldraw/odm/2003">
 <defs>
  <style type="text/css">
   <![CDATA[
    .fil4 {fill:#FEFEFE}
    .fil1 {fill:#FFF000}
    .fil7 {fill:#E62129}
    .fil3 {fill:#00A2E9}
    .fil2 {fill:#009B4C}
    .fil0 {fill:#1D1819}
    .fil6 {fill:#FEFEFE;fill-rule:nonzero}
    .fil5 {fill:#1D1819;fill-rule:nonzero}
   ]]>
  </style>
 </defs>
 <g id="Layer_x0020_1">
  <metadata id="CorelCorpID_0Corel-Layer"/>
  <path class="fil0" d="M408.29 320.56l0.25 0.9c1.19,4.19 0.49,9.08 -1.38,12.97 -2.6,5.43 -7.31,9.01 -13.02,10.74 -2.88,0.87 -5.78,1.21 -8.64,0.97 1.34,1.11 2.55,2.37 3.2,4.03 1.47,3.76 -0.74,8.28 -2.37,11.65 -22.06,45.74 -57.62,83.53 -104.75,103.56 -45.42,19.3 -89.65,19.17 -134.96,-0.34 -46.75,-20.13 -82.03,-57.75 -103.95,-103.22 -1.63,-3.37 -3.84,-7.89 -2.37,-11.65 0.65,-1.66 1.86,-2.92 3.2,-4.03 -2.86,0.24 -5.76,-0.1 -8.64,-0.97 -5.71,-1.73 -10.42,-5.31 -13.02,-10.74 -1.87,-3.89 -2.57,-8.78 -1.38,-12.97l0.25 -0.9 -0.29 -0.29c-9.4,-9.24 -17.39,-21 -19.75,-34.18 -1.81,-10.15 -0.06,-20.69 6.51,-28.86 5.17,-6.43 12.48,-10.29 20.55,-11.69l14.19 -2.46 -11.86 8.16c-2.9,2 -5.43,4.68 -6.67,8.03 -0.95,2.58 -1.05,5.36 -0.14,7.97 0.99,2.84 3.03,5.11 5.64,6.57 3.39,1.89 7.4,2.25 11.19,1.73 0.71,-0.1 1.4,-0.3 2.06,-0.57 1.34,-0.53 2.59,-1.31 3.78,-2.11 2.86,-1.9 5.55,-4.01 8.93,-4.91 8.71,-2.32 15.83,5.53 20.57,11.69l0.41 0.54 0.15 0.66c11.26,47.44 34.93,93.58 80.75,115.48 18.12,8.66 37.76,12.53 57.77,12.75 20.01,-0.22 39.65,-4.09 57.77,-12.75 45.82,-21.9 69.49,-68.04 80.75,-115.48l0.15 -0.66 0.41 -0.54c4.74,-6.16 11.86,-14.01 20.57,-11.69 3.38,0.9 6.07,3.01 8.93,4.91 1.74,1.17 3.72,2.38 5.84,2.68 3.79,0.52 7.8,0.16 11.19,-1.73 2.61,-1.46 4.65,-3.73 5.64,-6.57 0.91,-2.61 0.81,-5.39 -0.14,-7.97 -1.24,-3.35 -3.77,-6.03 -6.67,-8.03l-11.86 -8.16 14.19 2.46c8.07,1.4 15.38,5.26 20.55,11.69 6.57,8.17 8.32,18.71 6.51,28.86 -2.36,13.18 -10.35,24.94 -19.75,34.18l-0.29 0.29zm-260.43 141.58c-41.23,-17.75 -78.24,-51.7 -102.36,-101.69 -3.92,-8.15 -3.18,-9.53 1.31,-12.89 9.57,-5.55 23.53,-15 20.94,-38.73l-2.99 -0.01c3.16,15.38 -9.62,39.21 -28.99,33.33 -11.58,-3.51 -13.9,-14.1 -12.28,-19.83 21.88,-3.14 33,-9.16 27.27,-32.54l-2.55 0.25c6.54,26.34 -17.56,28.16 -25.58,28 -30.97,-30.42 -21.97,-64.59 5.64,-69.39 -16.74,11.53 -7.9,32.82 12.24,30.02 10.8,-1.5 15.67,-18.87 32.41,2.9 20.9,88.15 73.65,129.94 141.58,130.66 67.93,-0.72 120.68,-42.51 141.58,-130.66 16.74,-21.77 21.61,-4.4 32.41,-2.9 20.14,2.8 28.98,-18.49 12.24,-30.02 27.61,4.8 36.61,38.97 5.64,69.39 -8.02,0.16 -32.12,-1.66 -25.58,-28l-2.55 -0.25c-5.73,23.38 5.39,29.4 27.27,32.54 1.62,5.73 -0.7,16.32 -12.28,19.83 -19.37,5.88 -32.15,-17.95 -28.99,-33.33l-2.99 0.01c-2.59,23.73 11.37,33.18 20.94,38.73 4.49,3.36 5.23,4.74 1.31,12.89 -24.27,50.31 -61.61,84.38 -103.16,102.03 -44.61,18.96 -87.92,18.85 -132.48,-0.34z"/>
  <path class="fil1" d="M147.86 462.14c-41.23,-17.75 -78.24,-51.7 -102.36,-101.69 -3.92,-8.15 -3.18,-9.53 1.31,-12.89 9.57,-5.55 23.53,-15 20.94,-38.73l-2.99 -0.01c3.16,15.38 -9.62,39.21 -28.99,33.33 -11.58,-3.51 -13.9,-14.1 -12.28,-19.83 21.88,-3.14 33,-9.16 27.27,-32.54l-2.55 0.25c6.54,26.34 -17.56,28.16 -25.58,28 -30.97,-30.42 -21.97,-64.59 5.64,-69.39 -16.74,11.53 -7.9,32.82 12.24,30.02 10.8,-1.5 15.67,-18.87 32.41,2.9 20.9,88.15 73.65,129.94 141.58,130.66 67.93,-0.72 120.68,-42.51 141.58,-130.66 16.74,-21.77 21.61,-4.4 32.41,-2.9 20.14,2.8 28.98,-18.49 12.24,-30.02 27.61,4.8 36.61,38.97 5.64,69.39 -8.02,0.16 -32.12,-1.66 -25.58,-28l-2.55 -0.25c-5.73,23.38 5.39,29.4 27.27,32.54 1.62,5.73 -0.7,16.32 -12.28,19.83 -19.37,5.88 -32.15,-17.95 -28.99,-33.33l-2.99 0.01c-2.59,23.73 11.37,33.18 20.94,38.73 4.49,3.36 5.23,4.74 1.31,12.89 -24.27,50.31 -61.61,84.38 -103.16,102.03 -44.61,18.96 -87.92,18.85 -132.48,-0.34z"/>
  <path class="fil0" d="M214.65 0c8.84,0 17.63,1.04 26.23,3.09 39.79,9.48 71.11,39.05 91.93,73.17 25.19,41.3 36.77,91.1 36.77,139.2 0,48.1 -11.58,97.9 -36.77,139.2 -20.82,34.12 -52.14,63.69 -91.93,73.17 -8.59,2.05 -17.39,3.09 -26.23,3.09 -8.83,0 -17.63,-1.04 -26.22,-3.09 -39.79,-9.48 -71.11,-39.05 -91.93,-73.17 -25.19,-41.3 -36.77,-91.1 -36.77,-139.2 0,-48.1 11.58,-97.9 36.77,-139.2 20.82,-34.12 52.14,-63.69 91.93,-73.17 8.59,-2.05 17.39,-3.09 26.22,-3.09zm0 3.15c83.6,0 151.78,95.38 151.78,212.31 0,116.94 -68.18,212.31 -151.78,212.31 -83.59,0 -151.77,-95.37 -151.77,-212.31 0,-116.93 68.18,-212.31 151.77,-212.31z"/>
  <path class="fil1" d="M214.65 3.15c83.6,0 151.78,95.38 151.78,212.31 0,116.94 -68.18,212.31 -151.78,212.31 -83.59,0 -151.77,-95.37 -151.77,-212.31 0,-116.93 68.18,-212.31 151.77,-212.31zm0 11.97c8.23,0 16.42,0.97 24.42,2.87 37.01,8.82 66.15,36.33 85.52,68.07 23.41,38.39 34.19,84.68 34.19,129.4 0,44.72 -10.77,91.01 -34.19,129.4 -19.37,31.74 -48.51,59.25 -85.52,68.07 -8,1.9 -16.19,2.87 -24.42,2.87 -8.22,0 -16.41,-0.97 -24.41,-2.87 -37.01,-8.82 -66.15,-36.33 -85.52,-68.07 -23.41,-38.39 -34.19,-84.68 -34.19,-129.4 0,-44.72 10.78,-91.01 34.19,-129.4 19.37,-31.74 48.51,-59.25 85.52,-68.07 8,-1.9 16.19,-2.87 24.41,-2.87z"/>
  <path class="fil0" d="M214.65 15.12c8.23,0 16.42,0.97 24.42,2.87 37.01,8.82 66.15,36.33 85.52,68.07 23.41,38.39 34.19,84.68 34.19,129.4 0,44.72 -10.77,91.01 -34.19,129.4 -19.37,31.74 -48.51,59.25 -85.52,68.07 -8,1.9 -16.19,2.87 -24.42,2.87 -8.22,0 -16.41,-0.97 -24.41,-2.87 -37.01,-8.82 -66.15,-36.33 -85.52,-68.07 -23.41,-38.39 -34.19,-84.68 -34.19,-129.4 0,-44.72 10.78,-91.01 34.19,-129.4 19.37,-31.74 48.51,-59.25 85.52,-68.07 8,-1.9 16.19,-2.87 24.41,-2.87zm0 3.15c77.65,0 140.98,88.58 140.98,197.19 0,108.61 -63.33,197.19 -140.98,197.19 -77.64,0 -140.97,-88.58 -140.97,-197.19 0,-108.61 63.33,-197.19 140.97,-197.19z"/>
  <path class="fil2" d="M214.65 18.27c77.65,0 140.98,88.58 140.98,197.19 0,108.61 -63.33,197.19 -140.98,197.19 -77.64,0 -140.97,-88.58 -140.97,-197.19 0,-108.61 63.33,-197.19 140.97,-197.19z"/>
  <path class="fil3" d="M342.56 298.21c-22.43,67.47 -71.37,114.44 -127.91,114.44 -56.53,0 -105.47,-46.97 -127.9,-114.44l255.81 0z"/>
  <polygon class="fil4" points="237.5,298.21 237.5,321.5 215.74,321.5 215.74,298.21 "/>
  <path class="fil5" d="M238.33 298.21l0 23.29 0 0.83 -0.83 0 -21.76 0 -0.84 0 0 -0.83 0 -23.29 23.43 0zm-1.67 0.71l-20.09 0 0 21.74 20.09 0 0 -21.74z"/>
  <polygon class="fil4" points="283.49,298.21 283.49,321.5 260.91,321.5 260.91,298.21 "/>
  <path class="fil5" d="M284.33 298.21l0 23.29 0 0.83 -0.84 0 -22.58 0 -0.84 0 0 -0.83 0 -23.29 24.26 0zm-1.67 0.71l-20.92 0 0 21.74 20.92 0 0 -21.74z"/>
  <polygon class="fil4" points="328.66,298.21 328.66,321.5 306.08,321.5 306.08,298.21 "/>
  <path class="fil5" d="M329.5 298.21l0 23.29 0 0.83 -0.84 0 -22.58 0 -0.84 0 0 -0.83 0 -23.29 24.26 0zm-1.67 0.71l-20.92 0 0 21.74 20.92 0 0 -21.74z"/>
  <polygon class="fil4" points="261.07,344.91 237.5,344.91 237.5,321.5 261.07,321.5 "/>
  <path class="fil5" d="M261.07 345.74l-23.57 0 -0.84 0 0 -0.83 0 -23.41 0 -0.84 0.84 0 23.57 0 0.84 0 0 0.84 0 23.41 0 0.83 -0.84 0zm-22.74 -1.67l21.91 0 0 -21.74 -21.91 0 0 21.74z"/>
  <polygon class="fil4" points="306.08,344.91 283.49,344.91 283.49,321.5 306.08,321.5 "/>
  <path class="fil5" d="M306.08 345.74l-22.59 0 -0.83 0 0 -0.83 0 -23.41 0 -0.84 0.83 0 22.59 0 0.83 0 0 0.84 0 23.41 0 0.83 -0.83 0zm-21.75 -1.67l20.91 0 0 -21.74 -20.91 0 0 21.74z"/>
  <path class="fil4" d="M328.66 331.2l0 -9.7 4.74 0c-1.51,3.3 -3.09,6.53 -4.74,9.7z"/>
  <path class="fil5" d="M327.83 332.77l0 -11.27 0 -0.84 0.83 0 5.12 0c-0.25,0.56 -0.5,1.12 -0.76,1.67l-3.52 0 0 7.24c-0.55,1.07 -1.11,2.14 -1.67,3.2z"/>
  <polygon class="fil4" points="215.74,368.32 237.5,368.32 237.5,344.91 215.74,344.91 "/>
  <path class="fil5" d="M216.57 367.49l20.09 0 0 -21.75 -20.09 0 0 21.75zm20.93 1.66l-21.76 0 -0.84 0 0 -0.83 0 -23.41 0 -0.84 0.84 0 21.76 0 0.83 0 0 0.84 0 23.41 0 0.83 -0.83 0z"/>
  <polygon class="fil4" points="260.91,368.32 283.49,368.32 283.49,344.91 260.91,344.91 "/>
  <path class="fil5" d="M261.74 367.49l20.92 0 0 -21.75 -20.92 0 0 21.75zm21.75 1.66l-22.58 0 -0.84 0 0 -0.83 0 -23.41 0 -0.84 0.84 0 22.58 0 0.84 0 0 0.84 0 23.41 0 0.83 -0.84 0z"/>
  <path class="fil4" d="M320.84 344.91l-14.76 0 0 20.43c5.27,-6.3 10.2,-13.13 14.76,-20.43z"/>
  <path class="fil5" d="M320.31 345.74l-13.4 0 0 18.6c-0.55,0.67 -1.11,1.34 -1.67,2l0 -21.43 0 -0.84 0.84 0 15.28 0c-0.35,0.56 -0.7,1.12 -1.05,1.67z"/>
  <polygon class="fil4" points="261.07,368.32 237.5,368.32 237.5,391.73 261.07,391.73 "/>
  <path class="fil5" d="M260.24 369.15l-21.91 0 0 21.75 21.91 0 0 -21.75zm-22.74 -1.66l23.57 0 0.84 0 0 0.83 0 23.41 0 0.83 -0.84 0 -23.57 0 -0.84 0 0 -0.83 0 -23.41 0 -0.83 0.84 0z"/>
  <path class="fil4" d="M303.54 368.32l-20.05 0 0 19.11c7.08,-5.57 13.79,-11.97 20.05,-19.11z"/>
  <path class="fil5" d="M302.79 369.15l-18.46 0 0 17.62c-0.56,0.45 -1.11,0.89 -1.67,1.32l0 -19.77 0 -0.83 0.83 0 20.77 0c-0.49,0.55 -0.98,1.11 -1.47,1.66z"/>
  <path class="fil4" d="M215.74 391.73l21.76 0 0 18.32c-7.09,1.63 -14.36,2.51 -21.76,2.59l0 -20.91z"/>
  <path class="fil5" d="M215.74 390.9l21.76 0 0.83 0 0 0.83 0 18.13c-0.55,0.13 -1.11,0.25 -1.67,0.38l0 -17.68 -20.09 0 0 20.07c-0.55,0.01 -1.11,0.02 -1.67,0.02l0 -20.92 0 -0.83 0.84 0z"/>
  <path class="fil4" d="M260.91 391.73l16.82 0c-5.42,3.82 -11.04,7.15 -16.82,9.98l0 -9.98z"/>
  <path class="fil5" d="M260.91 390.9l17.99 0c-0.78,0.56 -1.57,1.12 -2.36,1.66l-14.8 0 0 8.74c-0.55,0.28 -1.11,0.55 -1.67,0.82l0 -10.39 0 -0.83 0.84 0z"/>
  <path class="fil6" d="M96.21 322.17c6.95,-2.1 12.83,-2.94 18.36,-2.91 5.44,0.02 10.58,2.37 15.99,4.01 7.39,2.23 15.72,2.03 23.12,-0.06 6.03,-1.71 12.09,-4.15 17.79,-3.75 11.55,-0.3 20.16,6.09 30.76,5.6 5.52,-0.26 9.74,-0.4 14.2,-1.42l0 0 -5.78 6.28 1.24 12.42 1.19 2.17c-19.34,5.22 -24.07,-3.52 -38.49,-4.22 -11.95,-0.58 -20.1,8.52 -31.12,8.12 -6.6,-0.24 -10.98,-3.63 -18.67,-5.54 -4.68,-1.17 -10.86,-0.65 -17.16,0.7 -4.14,-6.76 -7.96,-13.91 -11.43,-21.4z"/>
  <path class="fil5" d="M95.87 321.4c2.24,-0.68 4.37,-1.23 6.42,-1.66 4.41,-0.94 8.43,-1.33 12.29,-1.31 4.21,0.01 8.19,1.36 12.24,2.74 1.3,0.44 2.61,0.88 3.99,1.3 3.54,1.07 7.31,1.57 11.08,1.56 3.92,-0.01 7.86,-0.57 11.57,-1.62 1.27,-0.37 2.51,-0.75 3.74,-1.13 4.84,-1.49 9.65,-2.97 14.31,-2.65 5.92,-0.14 11.03,1.41 16.03,2.94 4.81,1.46 9.52,2.89 14.65,2.66l0.96 -0.05c5.09,-0.23 9.08,-0.41 13.29,-1.4l-0.01 0.86 -0.98 1.06c-3.83,0.76 -7.58,0.93 -12.23,1.14l-0.96 0.05c-5.4,0.25 -10.25,-1.23 -15.21,-2.74 -4.88,-1.48 -9.88,-3 -15.56,-2.86l-0.05 0 -0.02 0c-4.37,-0.3 -9.04,1.13 -13.73,2.58 -1.27,0.4 -2.55,0.79 -3.78,1.14 -3.84,1.09 -7.93,1.67 -12.02,1.68 -3.94,0.01 -7.87,-0.51 -11.57,-1.63 -1.32,-0.4 -2.68,-0.86 -4.03,-1.32 -3.93,-1.33 -7.78,-2.64 -11.72,-2.65 -3.73,-0.02 -7.63,0.36 -11.93,1.27 -1.94,0.41 -3.95,0.93 -6.07,1.57 -0.24,-0.51 -0.47,-1.02 -0.7,-1.53zm117.63 23.86c-12.47,3.41 -19,1.16 -25.77,-1.17 -3.91,-1.34 -7.9,-2.71 -13.18,-2.97 -5.94,-0.29 -10.98,1.93 -15.93,4.1 -4.86,2.13 -9.63,4.22 -15.18,4.02 -4.04,-0.14 -7.23,-1.41 -10.78,-2.82 -2.39,-0.95 -4.96,-1.97 -8.06,-2.74 -3.81,-0.95 -8.69,-0.74 -13.81,0.13 -0.89,0.15 -1.79,0.32 -2.69,0.51 -0.31,-0.5 -0.61,-1 -0.91,-1.5 1.11,-0.25 2.22,-0.46 3.32,-0.65 5.33,-0.91 10.44,-1.12 14.49,-0.11 3.2,0.8 5.82,1.84 8.27,2.81 3.42,1.36 6.48,2.58 10.23,2.71 5.17,0.19 9.77,-1.83 14.46,-3.89 5.12,-2.24 10.34,-4.53 16.67,-4.23 5.53,0.27 9.63,1.68 13.64,3.06 6.44,2.21 12.67,4.35 24.4,1.24l0.83 1.5z"/>
  <path class="fil6" d="M123.53 365.7c4.8,-1.34 9.02,-1.89 13.02,-1.87 4.69,0.02 9.13,2.22 13.81,3.76 6.38,2.09 13.57,1.91 19.96,-0.06 5.2,-1.6 10.44,-3.88 15.36,-3.51 9.97,-0.28 17.4,5.71 26.56,5.24l0.5 -0.02 -0.46 0.86 -1.01 10.96 5.37 8.41 -0.01 0.85c-13.13,1.72 -18.77,-6.21 -29.91,-6.79 -10.32,-0.54 -15.7,8 -25.22,7.62 -5.69,-0.22 -9.47,-3.4 -16.11,-5.19 -0.6,-0.17 -1.23,-0.29 -1.89,-0.39 -7.07,-5.82 -13.75,-12.47 -19.97,-19.87z"/>
  <path class="fil5" d="M122.94 365c1.02,-0.29 2.01,-0.55 2.98,-0.77 3.81,-0.88 7.3,-1.25 10.64,-1.23 3.67,0.02 7.12,1.29 10.63,2.58 1.14,0.42 2.29,0.84 3.43,1.21 3.04,1 6.28,1.47 9.52,1.46 3.37,-0.01 6.76,-0.53 9.94,-1.51 1.08,-0.34 2.16,-0.7 3.23,-1.06 4.19,-1.4 8.36,-2.79 12.41,-2.49 5.14,-0.13 9.56,1.33 13.89,2.76 4.14,1.37 8.2,2.71 12.59,2.48l0.83 -0.04 0.17 -0.01 -0.92 1.72c-4.71,0.23 -8.9,-1.15 -13.2,-2.57 -4.2,-1.39 -8.51,-2.81 -13.37,-2.68l-0.07 0.01 -0.02 -0.01c-3.74,-0.28 -7.75,1.06 -11.78,2.41 -1.1,0.37 -2.19,0.74 -3.28,1.07 -3.33,1.02 -6.88,1.57 -10.42,1.58 -3.42,0.01 -6.83,-0.48 -10.04,-1.53 -1.19,-0.39 -2.34,-0.82 -3.48,-1.24 -3.38,-1.24 -6.7,-2.46 -10.07,-2.48 -3.21,-0.02 -6.57,0.34 -10.26,1.19 -0.71,0.17 -1.44,0.35 -2.17,0.55 -0.4,-0.46 -0.79,-0.93 -1.18,-1.4zm93.69 26.16c-7.63,0.99 -12.77,-1.21 -17.89,-3.39 -3.72,-1.59 -7.42,-3.17 -12.07,-3.41 -5.06,-0.27 -8.95,1.79 -12.77,3.81 -3.82,2.02 -7.57,4 -12.43,3.81 -3.52,-0.14 -6.28,-1.33 -9.37,-2.66 -2.06,-0.89 -4.27,-1.84 -6.93,-2.56 -0.1,-0.03 -0.2,-0.05 -0.3,-0.08 -0.85,-0.68 -1.7,-1.37 -2.54,-2.08 1.16,0.1 2.25,0.28 3.27,0.55 2.78,0.75 5.05,1.73 7.16,2.64 2.94,1.27 5.57,2.4 8.78,2.53 4.41,0.17 7.96,-1.71 11.59,-3.62 4.01,-2.13 8.11,-4.29 13.63,-4 4.94,0.26 8.78,1.89 12.64,3.54 4.93,2.1 9.88,4.22 17.24,3.23l-0.01 1.69z"/>
  <path class="fil5" d="M207.03 412.36l0 -1.84 0 -1.77 1.25 -1.3 3.9 -4.07 0 -14.17 -4.21 -5 -1.06 -1.26 0 -1.59 0 -10.6 0 -1.38 0.8 -1.15 4.49 -6.45 0 -11.68 -4.37 -5.72 -0.92 -1.2 0 -1.49 0 -12.91 0 -1.6 1.04 -1.25 4 -4.78 0 -14.28 -4.28 -4.91 -1.11 -1.28 0 -1.64 0 -6.59 8.89 0 0 4.94 4.28 4.92 1.12 1.27 0 1.64 0 17.53 0 1.6 -1.05 1.25 -4 4.78 0 9.82 4.37 5.72 0.92 1.21 0 1.49 0 14.54 0 1.39 -0.8 1.15 -4.49 6.45 0 7.62 4.21 5.01 1.06 1.25 0 1.59 0 17.54 0 1.77 -1.25 1.3 -3.9 4.06 0 0.34c-0.42,0 -0.84,0.02 -1.27,0.02 -2.55,0 -5.1,-0.1 -7.62,-0.29z"/>
  <path class="fil4" d="M214.35 412.65l0 -0.99 5.15 -5.37 0 -19.68 -5.27 -6.26 0 -8.69 5.29 -7.6 0 -16.4 -5.29 -6.92 0 -10.93 5.04 -6.03 0 -19.61 -5.39 -6.18 0 -3.96 -5.75 0 0 6.06 5.4 6.19 0 15.44 -5.04 6.03 0 14.89 5.29 6.93 0 12.7 -5.29 7.6 0 12.51 5.26 6.26 0 15.38 -5.15 5.37 0 3.07c1.91,0.11 3.82,0.18 5.75,0.19z"/>
  <polygon class="fil0" points="342.58,298.21 86.74,298.21 115.37,264.35 161.99,264.35 172.08,282.11 193.51,239.92 241.71,239.92 260.1,281.14 267.23,269.02 318.52,269.02 "/>
  <path class="fil5" d="M164.62 63.12c-3.13,0.08 -6.18,3.57 -9.23,7.06 -1.61,1.84 -3.21,3.68 -4.88,5.09l-1.07 -1.27c1.58,-1.34 3.14,-3.13 4.7,-4.91 3.29,-3.76 6.58,-7.53 10.44,-7.63l0.04 1.66zm19.02 147.26l0.51 6.03c1.89,0.51 3.78,0.91 5.63,1.3 4.44,0.94 8.7,1.84 12.44,4.06 1.11,0.66 1.3,0.53 0.53,1.56 -1.56,2.1 -1.45,1.25 -3.6,-0.06 -2.95,-1.79 -6.02,-3.15 -9.71,-3.93 -5.06,-1.07 -10.35,-2.19 -15.34,-5.37 -1.31,-0.05 -2.41,-0.42 -3.51,-0.79 -2.03,-0.68 -4.07,-1.36 -7.44,0.6l-0.83 -1.44c4.02,-2.34 6.41,-1.54 8.8,-0.73l0.22 0.07 -14.8 -12.55 -1.34 -0.67c-1.95,-0.97 -3.96,-1.04 -5.99,-1.1 -1.39,-0.05 -2.79,-0.09 -4.23,-0.41l0.36 -1.63c1.29,0.29 2.61,0.33 3.93,0.38 1.29,0.04 2.59,0.08 3.9,0.34 -0.48,-0.56 -0.98,-1.11 -1.47,-1.66 -2.22,-2.48 -4.44,-4.96 -5.78,-8.4 -3,-0.93 -4.7,-3.04 -6.39,-5.15 -0.82,-1.02 -1.63,-2.05 -2.59,-2.89l-0.26 -0.22 -0.02 -0.34c-0.1,-1.34 -0.51,-2.64 -0.92,-3.93 -0.86,-2.72 -1.72,-5.43 -0.2,-8.91 -1.15,-1.44 -2.06,-2.94 -2.95,-4.42 -1.8,-2.99 -3.54,-5.87 -7.02,-7.5l0.7 -1.51c1.16,0.54 2.15,1.2 3,1.93 0.3,-1.51 0.4,-3.16 0.49,-4.81 0.12,-1.93 0.23,-3.85 0.64,-5.62 -0.65,-1.7 -1.41,-3.34 -2.17,-4.98 -1.75,-3.78 -3.5,-7.55 -4.07,-12.28l0.83 -0.1 -0.51 -0.65c2.04,-1.59 3.87,-3.62 5.67,-5.69l-1.26 -23.02 1.66 -0.09 0.27 4.83 11.94 -5.43 0.68 1.52 -12.53 5.69 0.81 14.7c0.7,-0.8 1.4,-1.59 2.13,-2.35l1.2 1.15c-1.04,1.09 -2.05,2.25 -3.05,3.4 -1.94,2.24 -3.89,4.48 -6.12,6.3 0.59,4.26 2.22,7.79 3.86,11.32 0.5,1.08 1,2.16 1.47,3.26 0.61,-1.29 1.5,-2.44 2.82,-3.37l0.95 1.35c-1.53,1.09 -2.36,2.61 -2.83,4.36l0.05 0.15 -0.1 0.04c-0.45,1.73 -0.56,3.67 -0.68,5.6 -0.12,2.08 -0.24,4.17 -0.75,6.09 1.31,1.47 2.32,3.14 3.34,4.85 0.95,1.57 1.92,3.17 3.14,4.61l0.35 0.42 -0.24 0.49c-1.53,3.11 -0.73,5.64 0.06,8.17 0.41,1.28 0.82,2.57 0.97,3.97 0.94,0.87 1.74,1.87 2.54,2.86 1.6,2 3.2,4 5.93,4.71l0.43 0.11 0.15 0.41c1.2,3.35 3.4,5.81 5.6,8.26 0.71,0.79 1.41,1.58 2.09,2.39l7.73 6.56 -0.48 -3.94 1.65 -0.2 0.7 5.73 10.22 8.67c2.45,1.58 5.01,2.64 7.59,3.44l-0.46 -5.4 1.66 -0.14zm-39.59 -129.52c-0.04,2.37 -1.18,4.97 -2.81,7.42 -2.01,3.04 -4.79,5.87 -7.09,7.67l-1.02 -1.31c2.18,-1.7 4.81,-4.39 6.73,-7.28 1.46,-2.21 2.49,-4.51 2.52,-6.52l1.67 0.02zm13.24 -3.13c-2.83,0.83 -5.59,0.7 -8.35,0.57 -1.33,-0.07 -2.66,-0.13 -3.97,-0.08l-0.05 -1.66c1.38,-0.05 2.74,0.01 4.1,0.08 2.62,0.12 5.24,0.25 7.8,-0.51l0.47 1.6z"/>
  <path class="fil1" d="M149.44 223.23c9.94,0.87 11.64,-5.38 19.18,-7.73 7.39,-2.3 10.06,2.34 16.65,2.46 -2.88,5.15 -3.49,8.47 -9.94,9.65 -5.66,1.57 -16.7,0.25 -25.89,-4.38z"/>
  <g>
   <path class="fil5" d="M149.49 222.79c5.93,0.52 8.84,-1.6 11.93,-3.83 2,-1.45 4.06,-2.95 7.04,-3.87 4.56,-1.42 7.37,-0.32 10.32,0.84 1.92,0.76 3.91,1.55 6.5,1.59 0.28,0.01 0.49,0.21 0.49,0.45 -0.01,0.08 -0.03,0.15 -0.07,0.21 -0.44,0.78 -0.84,1.56 -1.22,2.29 -2.04,3.94 -3.38,6.52 -9.01,7.56 -3.04,0.84 -7.57,0.88 -12.52,0.04 -4.48,-0.76 -9.33,-2.23 -13.75,-4.46 -0.24,-0.12 -0.32,-0.38 -0.18,-0.59 0.09,-0.16 0.28,-0.24 0.47,-0.23l0 0zm12.55 -3.15c-2.84,2.06 -5.56,4.03 -10.44,4.11 3.78,1.68 7.79,2.82 11.53,3.45 4.81,0.81 9.16,0.79 12.06,-0.02l0 0.01 0.04 -0.01c5.17,-0.95 6.43,-3.37 8.35,-7.07 0.29,-0.55 0.59,-1.12 0.92,-1.74 -2.41,-0.17 -4.3,-0.91 -6.12,-1.63 -2.77,-1.09 -5.4,-2.13 -9.59,-0.82 -2.81,0.87 -4.81,2.32 -6.75,3.72zm23.66 -1.46c-0.08,0.14 -0.25,0.23 -0.44,0.22l0.44 -0.22z"/>
  </g>
  <path class="fil1" d="M133.59 204.95c9.11,4.06 12.76,-1.3 20.66,-1.06 7.73,0.24 8.74,5.5 14.93,7.76 -11.64,10.38 -24.45,4.73 -35.59,-6.7z"/>
  <path class="fil5" d="M133.78 204.55c5.43,2.42 8.88,1.37 12.52,0.26 2.37,-0.71 4.81,-1.46 7.93,-1.36 4.77,0.15 7.06,2.11 9.47,4.16 1.58,1.35 3.2,2.74 5.64,3.63 0.25,0.09 0.39,0.35 0.3,0.58 -0.02,0.07 -0.06,0.13 -0.12,0.17 -5.51,4.91 -11.3,6.3 -17.07,5.22 -6.62,-1.25 -13.17,-5.77 -19.21,-11.98 -0.19,-0.19 -0.18,-0.47 0.02,-0.63 0.14,-0.11 0.35,-0.13 0.52,-0.05l0 0zm12.89 1.11c-3.37,1.03 -6.59,2 -11.25,0.47 5.48,5.3 11.31,9.11 17.17,10.21 5.28,0.99 10.6,-0.23 15.71,-4.56 -2.21,-0.95 -3.75,-2.26 -5.24,-3.54 -2.26,-1.93 -4.41,-3.77 -8.8,-3.9 -2.94,-0.09 -5.3,0.63 -7.59,1.32z"/>
  <path class="fil1" d="M167.48 184.44c6.18,6.76 0.97,11.62 3.48,18.43 2.45,6.67 8,7.77 11.77,12.5 7.27,-12.08 -2.05,-24.56 -15.25,-30.93z"/>
  <path class="fil5" d="M169.01 185.69c2.49,3.51 2.18,6.54 1.85,9.69 -0.24,2.33 -0.49,4.72 0.49,7.38 1.46,3.95 4.07,5.9 6.72,7.88 1.58,1.18 3.17,2.37 4.58,4 0.2,-0.36 0.38,-0.72 0.56,-1.08 2.46,-5.09 2,-10.21 -0.37,-14.82 -2.39,-4.66 -6.72,-8.84 -11.99,-12.01 -0.6,-0.36 -1.22,-0.71 -1.84,-1.04zm1.01 9.5c0.35,-3.37 0.69,-6.62 -2.84,-10.47l0.01 0c-0.12,-0.13 -0.17,-0.31 -0.11,-0.47 0.08,-0.22 0.32,-0.31 0.54,-0.2 1.23,0.59 2.43,1.24 3.59,1.94 5.42,3.26 9.89,7.57 12.37,12.41 2.5,4.87 2.98,10.26 0.39,15.62 -0.25,0.53 -0.54,1.06 -0.86,1.6 -0.03,0.04 -0.06,0.08 -0.1,0.11 -0.17,0.14 -0.44,0.1 -0.59,-0.1 -1.42,-1.78 -3.12,-3.05 -4.8,-4.3 -2.77,-2.07 -5.5,-4.11 -7.06,-8.34 -1.05,-2.87 -0.79,-5.37 -0.54,-7.8z"/>
  <path class="fil1" d="M117.53 180.02c7.62,6.44 12.61,2.31 20.13,4.75 7.36,2.38 6.87,7.71 12.18,11.61 -14.07,6.72 -24.8,-2.27 -32.31,-16.36z"/>
  <path class="fil5" d="M117.83 179.69c4.54,3.84 8.14,3.79 11.95,3.75 2.47,-0.03 5.02,-0.07 7.99,0.9 4.54,1.47 6.2,3.99 7.94,6.64 1.13,1.73 2.31,3.51 4.39,5.05 0.23,0.16 0.29,0.45 0.14,0.64 -0.04,0.06 -0.1,0.11 -0.17,0.13 -6.66,3.18 -12.61,2.9 -17.85,0.25 -6.01,-3.04 -11.03,-9.21 -15.11,-16.86 -0.12,-0.23 -0.03,-0.5 0.2,-0.59 0.17,-0.07 0.37,-0.03 0.52,0.09l0 0zm12.06 4.66c-3.52,0.05 -6.88,0.09 -10.93,-2.69 3.78,6.62 8.33,11.9 13.64,14.59 4.79,2.43 10.25,2.74 16.36,0.01 -1.86,-1.53 -2.97,-3.22 -4.05,-4.86 -1.63,-2.48 -3.18,-4.85 -7.36,-6.2 -2.79,-0.91 -5.27,-0.88 -7.66,-0.85z"/>
  <path class="fil1" d="M153.32 172.45c1.83,7.25 -1.36,10.59 -1.27,15.24 0.14,7.93 7.47,8.83 11.46,13.83 7.26,-12.08 -0.65,-22.09 -10.19,-29.07z"/>
  <path class="fil5" d="M153.96 173.44c0.81,4.08 0.05,6.89 -0.66,9.48 -0.44,1.61 -0.86,3.14 -0.83,4.81 0.09,4.92 3.13,7.03 6.31,9.24 1.62,1.12 3.27,2.27 4.64,3.82 3.26,-5.71 3.06,-10.94 0.92,-15.56 -2.08,-4.5 -6.01,-8.47 -10.38,-11.79zm-1.48 9.16c0.74,-2.7 1.55,-5.65 0.44,-10.06 -0.04,-0.12 -0.03,-0.25 0.03,-0.35 0.12,-0.2 0.38,-0.23 0.58,-0.09 4.84,3.54 9.26,7.85 11.56,12.82 2.32,5.02 2.5,10.67 -1.21,16.84 -0.02,0.05 -0.05,0.09 -0.09,0.12 -0.17,0.14 -0.44,0.09 -0.6,-0.1 -1.34,-1.68 -3.1,-2.91 -4.83,-4.1 -3.39,-2.36 -6.64,-4.61 -6.74,-10.03 -0.03,-1.8 0.4,-3.38 0.86,-5.05z"/>
  <path class="fil1" d="M110.73 152.91c5.62,8.24 11.53,5.6 18.13,9.96 6.45,4.27 4.55,9.26 8.63,14.45 -15.36,2.71 -23.29,-8.83 -26.76,-24.41z"/>
  <path class="fil5" d="M111.1 152.68c3.35,4.91 6.83,5.83 10.52,6.8 2.38,0.63 4.85,1.28 7.46,3 3.98,2.63 4.9,5.5 5.87,8.52 0.63,1.97 1.28,4.01 2.89,6.05 0.16,0.21 0.15,0.51 -0.05,0.65 -0.06,0.05 -0.13,0.08 -0.2,0.09 -7.27,1.27 -12.92,-0.58 -17.26,-4.54 -4.98,-4.54 -8.17,-11.83 -10.05,-20.28 -0.06,-0.26 0.1,-0.5 0.35,-0.53 0.18,-0.02 0.36,0.08 0.47,0.24l0 0zm10.38 7.71c-3.41,-0.9 -6.65,-1.75 -9.82,-5.51 1.88,7.39 4.85,13.69 9.25,17.7 3.97,3.62 9.14,5.38 15.77,4.38 -1.39,-1.97 -2.01,-3.89 -2.61,-5.76 -0.91,-2.83 -1.77,-5.52 -5.43,-7.94 -2.46,-1.62 -4.85,-2.26 -7.16,-2.87z"/>
  <path class="fil1" d="M146.82 154.49c-0.73,7.44 -4.87,9.5 -6.36,13.91 -2.55,7.51 4.04,10.84 6.09,16.89 10.93,-8.9 6.88,-21 0.27,-30.8z"/>
  <path class="fil5" d="M147.09 155.64c-0.62,4.11 -2.3,6.49 -3.84,8.69 -0.96,1.37 -1.87,2.66 -2.41,4.25 -1.58,4.66 0.57,7.67 2.81,10.82 1.14,1.61 2.31,3.25 3.07,5.17 5.01,-4.27 6.59,-9.25 6.14,-14.33 -0.44,-4.94 -2.78,-10 -5.77,-14.6zm-4.5 8.11c1.61,-2.29 3.37,-4.79 3.82,-9.31 0,-0.13 0.06,-0.25 0.16,-0.32 0.17,-0.14 0.43,-0.09 0.57,0.12 3.35,4.96 6.05,10.51 6.53,15.97 0.49,5.51 -1.27,10.89 -6.84,15.44 -0.04,0.03 -0.08,0.06 -0.13,0.07 -0.21,0.08 -0.45,-0.06 -0.53,-0.29 -0.69,-2.04 -1.93,-3.79 -3.15,-5.5 -2.39,-3.36 -4.69,-6.59 -2.95,-11.71 0.58,-1.71 1.53,-3.05 2.52,-4.47z"/>
  <path class="fil1" d="M109.92 124.07c3.41,9.37 9.79,8.27 15.11,14.12 5.2,5.73 2.12,10.11 4.8,16.13 -15.55,-1.15 -20.4,-14.29 -19.91,-30.25z"/>
  <path class="fil5" d="M110.34 123.93c2.03,5.59 5.18,7.34 8.51,9.19 2.16,1.2 4.39,2.44 6.49,4.75 3.2,3.53 3.39,6.54 3.58,9.71 0.13,2.06 0.26,4.2 1.31,6.57 0.11,0.25 0.02,0.53 -0.2,0.62 -0.07,0.03 -0.14,0.04 -0.21,0.03 -7.37,-0.55 -12.39,-3.75 -15.62,-8.65 -3.7,-5.62 -5,-13.48 -4.73,-22.14 0,-0.26 0.21,-0.45 0.46,-0.42 0.19,0.03 0.34,0.16 0.4,0.34l0.01 0zm8.15 10.04c-3.08,-1.71 -6.01,-3.34 -8.15,-7.77 -0.01,7.63 1.31,14.47 4.59,19.44 2.95,4.5 7.53,7.48 14.2,8.14 -0.86,-2.26 -0.99,-4.27 -1.11,-6.23 -0.18,-2.96 -0.35,-5.79 -3.3,-9.04 -1.98,-2.17 -4.14,-3.37 -6.23,-4.54z"/>
  <path class="fil1" d="M118.29 93.74c-0.07,9.98 6.29,11.18 9.23,18.51 2.87,7.19 -1.54,10.21 -1.14,16.79 -14.16,-6.51 -14.12,-20.52 -8.09,-35.3z"/>
  <path class="fil5" d="M118.73 93.76c-0.04,5.94 2.3,8.68 4.77,11.58 1.6,1.88 3.26,3.82 4.42,6.72 1.77,4.43 0.89,7.32 -0.03,10.35 -0.6,1.98 -1.23,4.02 -1.07,6.61 0.02,0.27 -0.17,0.5 -0.41,0.52 -0.07,0 -0.15,-0.02 -0.21,-0.05 -6.7,-3.09 -10.29,-7.84 -11.6,-13.56 -1.51,-6.56 0.02,-14.38 3.29,-22.4 0.1,-0.25 0.36,-0.35 0.58,-0.23 0.17,0.09 0.26,0.27 0.26,0.46l0 0zm4.14 12.26c-2.29,-2.68 -4.47,-5.24 -4.93,-10.13 -2.67,7.14 -3.82,14.01 -2.49,19.82 1.2,5.24 4.45,9.63 10.47,12.58 -0.02,-2.41 0.56,-4.34 1.14,-6.22 0.86,-2.84 1.69,-5.55 0.06,-9.63 -1.1,-2.72 -2.7,-4.61 -4.25,-6.42z"/>
  <path class="fil1" d="M146.9 116.33c-4.32,6.1 -8.94,5.85 -12.41,8.93 -5.94,5.27 -1.86,11.42 -3.07,17.7 13.9,-2.32 16.37,-14.84 15.48,-26.63z"/>
  <path class="fil5" d="M146.56 117.46c-2.57,3.27 -5.21,4.51 -7.63,5.65 -1.52,0.72 -2.95,1.39 -4.2,2.5 -3.68,3.27 -3.31,6.95 -2.92,10.8 0.2,1.96 0.4,3.97 0.11,6.01 6.46,-1.23 10.3,-4.78 12.43,-9.41 2.06,-4.51 2.53,-10.07 2.21,-15.55zm-7.92 4.82c2.54,-1.19 5.3,-2.49 7.93,-6.2 0.07,-0.11 0.17,-0.18 0.29,-0.2 0.23,-0.03 0.42,0.14 0.44,0.39 0.46,5.96 0.05,12.13 -2.23,17.11 -2.3,5.03 -6.49,8.83 -13.59,10.03 -0.05,0.01 -0.1,0.01 -0.15,0 -0.22,-0.04 -0.36,-0.27 -0.31,-0.52 0.41,-2.11 0.19,-4.25 -0.02,-6.34 -0.41,-4.1 -0.81,-8.04 3.24,-11.63 1.35,-1.2 2.83,-1.9 4.4,-2.64z"/>
  <path class="fil1" d="M154.97 99.69c-6.23,4.14 -10.44,2.24 -14.79,3.86 -7.43,2.77 -5.86,9.98 -9.25,15.4 13.81,2.85 20.63,-7.94 24.04,-19.26z"/>
  <path class="fil5" d="M154.25 100.63c-3.58,2.12 -6.48,2.33 -9.16,2.52 -1.67,0.12 -3.24,0.23 -4.81,0.81 -4.61,1.72 -5.6,5.29 -6.62,9.02 -0.52,1.9 -1.06,3.84 -2.07,5.64 6.48,1.19 11.34,-0.73 14.99,-4.29 3.55,-3.46 5.99,-8.47 7.67,-13.7zm-9.12 1.64c2.79,-0.2 5.83,-0.42 9.63,-2.93 0.1,-0.07 0.22,-0.1 0.35,-0.08 0.22,0.05 0.34,0.29 0.26,0.52 -1.72,5.73 -4.32,11.34 -8.25,15.16 -3.96,3.85 -9.25,5.9 -16.3,4.44 -0.05,0 -0.09,-0.02 -0.13,-0.04 -0.19,-0.12 -0.24,-0.39 -0.11,-0.6 1.15,-1.82 1.72,-3.89 2.27,-5.92 1.1,-3.98 2.15,-7.79 7.22,-9.68 1.69,-0.63 3.33,-0.75 5.06,-0.87z"/>
  <path class="fil1" d="M132.34 67.64c-2.54,9.64 3.33,12.38 4.36,20.22 1,7.67 -4.02,9.5 -5.26,15.98 -12.11,-9.82 -8.6,-23.38 0.9,-36.2z"/>
  <path class="fil5" d="M132.77 67.76c-1.52,5.75 0.07,8.99 1.75,12.4 1.08,2.22 2.21,4.51 2.61,7.61 0.63,4.73 -0.94,7.31 -2.59,10.02 -1.07,1.76 -2.18,3.59 -2.67,6.14 -0.05,0.27 -0.29,0.44 -0.52,0.4 -0.08,-0.02 -0.14,-0.05 -0.2,-0.1 -5.73,-4.66 -8.03,-10.15 -7.88,-16.01 0.17,-6.74 3.58,-13.93 8.74,-20.89 0.16,-0.21 0.44,-0.25 0.62,-0.08 0.14,0.13 0.18,0.33 0.14,0.51l0 0zm0.97 12.9c-1.55,-3.16 -3.03,-6.18 -2.27,-11.03 -4.35,6.26 -7.17,12.63 -7.32,18.58 -0.13,5.38 1.92,10.43 7.02,14.79 0.58,-2.35 1.63,-4.07 2.65,-5.75 1.54,-2.54 3.01,-4.96 2.44,-9.31 -0.38,-2.91 -1.47,-5.13 -2.52,-7.28z"/>
  <path class="fil1" d="M167.05 82.79c-6.92,2.85 -10.68,0.17 -15.27,0.92 -7.83,1.28 -7.67,8.66 -12.05,13.32 12.99,5.47 21.77,-3.79 27.32,-14.24z"/>
  <path class="fil5" d="M166.16 83.58c-3.92,1.38 -6.81,1.02 -9.48,0.69 -1.66,-0.21 -3.23,-0.4 -4.88,-0.13 -4.85,0.79 -6.51,4.1 -8.24,7.56 -0.88,1.76 -1.78,3.57 -3.12,5.14 6.12,2.41 11.26,1.47 15.53,-1.31 4.16,-2.71 7.53,-7.15 10.19,-11.95zm-9.27 -0.16c2.77,0.34 5.8,0.72 10.01,-1.01 0.11,-0.05 0.24,-0.06 0.36,-0.01 0.2,0.09 0.28,0.34 0.16,0.56 -2.81,5.29 -6.44,10.28 -11.04,13.27 -4.63,3.01 -10.2,3.99 -16.84,1.2 -0.05,-0.01 -0.09,-0.04 -0.13,-0.07 -0.16,-0.15 -0.15,-0.42 0.02,-0.6 1.47,-1.57 2.43,-3.49 3.37,-5.37 1.84,-3.69 3.61,-7.23 8.96,-8.1 1.78,-0.29 3.4,-0.09 5.13,0.13z"/>
  <path class="fil1" d="M157.18 49.66c-5.92,8.03 -1.48,12.74 -3.41,20.4 -1.9,7.5 -7.25,7.36 -10.79,12.92 -7.63,-13.6 0.64,-24.9 14.2,-33.32z"/>
  <path class="fil5" d="M157.53 49.94c-3.53,4.78 -3.25,8.37 -2.95,12.17 0.19,2.46 0.39,5.01 -0.38,8.03 -1.16,4.63 -3.57,6.45 -6.1,8.35 -1.65,1.25 -3.36,2.54 -4.75,4.73 -0.15,0.23 -0.43,0.31 -0.64,0.17 -0.06,-0.04 -0.11,-0.09 -0.14,-0.16 -3.61,-6.44 -3.72,-12.39 -1.42,-17.79 2.64,-6.19 8.47,-11.62 15.83,-16.19 0.23,-0.13 0.5,-0.06 0.61,0.16 0.08,0.17 0.05,0.37 -0.06,0.52l0 0.01zm-3.86 12.34c-0.28,-3.51 -0.54,-6.86 1.97,-11.09 -6.36,4.21 -11.33,9.1 -13.67,14.57 -2.11,4.95 -2.06,10.41 1.07,16.33 1.41,-1.96 3.02,-3.18 4.58,-4.36 2.38,-1.79 4.63,-3.49 5.71,-7.75 0.72,-2.85 0.53,-5.31 0.34,-7.7z"/>
  <path class="fil1" d="M184.01 71.4c-7.45,0.71 -10.26,-2.96 -14.87,-3.58 -7.86,-1.06 -9.86,6.04 -15.42,9.22 10.84,9.02 21.94,2.73 30.29,-5.64z"/>
  <path class="fil5" d="M182.93 71.89c-4.15,0.18 -6.81,-1.01 -9.26,-2.11 -1.53,-0.68 -2.97,-1.32 -4.63,-1.55 -4.88,-0.66 -7.43,2.03 -10.09,4.83 -1.36,1.43 -2.75,2.89 -4.49,4 5.16,4.1 10.35,4.7 15.24,3.29 4.77,-1.38 9.29,-4.65 13.23,-8.46zm-8.82 -2.86c2.56,1.14 5.35,2.38 9.88,1.96 0.12,-0.02 0.25,0.01 0.34,0.09 0.17,0.15 0.17,0.41 -0.01,0.59 -4.23,4.24 -9.16,7.95 -14.43,9.47 -5.31,1.53 -10.93,0.84 -16.46,-3.77 -0.04,-0.03 -0.07,-0.06 -0.1,-0.11 -0.11,-0.19 -0.03,-0.45 0.19,-0.57 1.87,-1.07 3.35,-2.63 4.79,-4.15 2.84,-2.99 5.57,-5.86 10.94,-5.13 1.78,0.24 3.28,0.91 4.86,1.62z"/>
  <path class="fil1" d="M189.59 52.3c-15.59,3.44 -15.48,-6.34 -28.6,11.43 12.38,6.74 22.56,-2.94 28.6,-11.43z"/>
  <g>
   <path class="fil5" d="M188.64 52.92c-4.8,0.92 -8.06,0.6 -10.71,0.33 -5.23,-0.53 -8.03,-0.81 -16.31,10.31 5.89,3.05 11.25,2.32 15.87,-0.2 4.45,-2.42 8.24,-6.5 11.15,-10.44zm-10.52 -0.51c2.77,0.28 6.21,0.62 11.42,-0.53l0 0c0.11,-0.02 0.22,-0.01 0.31,0.05 0.19,0.12 0.23,0.38 0.09,0.58 -3.06,4.3 -7.17,8.9 -12.1,11.58 -4.97,2.71 -10.75,3.47 -17.08,0.03l-0.04 -0.03c-0.19,-0.12 -0.22,-0.38 -0.08,-0.58 8.85,-11.98 11.83,-11.68 17.48,-11.1zm-17.36 11.71l-0.02 -0.01 0.02 0.01z"/>
  </g>
  <path class="fil1" d="M145.56 134.79c-2.73,6.97 -7.27,7.83 -9.9,11.66 -4.5,6.53 0.94,11.53 1.27,17.92 12.94,-5.6 12.33,-18.35 8.63,-29.58z"/>
  <path class="fil5" d="M145.51 135.98c-1.72,3.78 -3.98,5.62 -6.06,7.31 -1.3,1.06 -2.52,2.06 -3.47,3.44 -2.79,4.05 -1.54,7.54 -0.24,11.18 0.66,1.86 1.34,3.75 1.55,5.81 5.97,-2.75 8.85,-7.11 9.8,-12.12 0.92,-4.88 0.04,-10.38 -1.58,-15.62zm-6.53 6.58c2.17,-1.77 4.54,-3.69 6.2,-7.93 0.04,-0.12 0.12,-0.22 0.24,-0.26 0.21,-0.09 0.44,0.03 0.52,0.27 1.87,5.68 2.96,11.76 1.94,17.15 -1.03,5.43 -4.18,10.13 -10.78,12.99 -0.05,0.02 -0.1,0.04 -0.15,0.04 -0.22,0.01 -0.41,-0.18 -0.42,-0.43 -0.12,-2.15 -0.84,-4.17 -1.54,-6.15 -1.39,-3.88 -2.72,-7.61 0.35,-12.07 1.02,-1.48 2.29,-2.52 3.64,-3.61z"/>
  <path class="fil5" d="M240.81 217.71c-4.44,0.94 -8.7,1.84 -12.44,4.06 -1.11,0.66 -1.3,0.53 -0.53,1.56 1.56,2.1 1.45,1.25 3.6,-0.06 2.94,-1.79 6.01,-3.15 9.71,-3.93 3.68,-0.78 12.14,-3.31 15.86,-4.92l-0.88 -1.43c-0.64,0.27 -6.82,2.92 -15.32,4.72z"/>
  <path class="fil4" d="M207.32 178.44c-6.21,5.01 -6.8,11.7 3.01,15.59 -1.15,1.74 -15.01,8.68 1.1,15.03 0.51,2.94 -0.29,5.27 0.57,6.48 3.14,5.3 -0.4,6.59 3.92,1.64 1.8,-1.74 0.23,-5.6 0.82,-10.67 2.29,-4.71 13.68,-9.54 1.17,-15.22 12.59,-4.34 5.82,-9.62 2.25,-11.58 14.92,-8.84 25.84,-27.54 29.76,-49.44 -3.12,-4.83 -7.99,-8.53 -0.87,-15.63 -10.08,-6.21 -5.62,-8.12 -4.35,-11.08 -7.44,-3.53 -5.55,-5.45 -4.29,-9.33 -9.09,-0.71 -7.41,-5.75 -5.62,-8.71 -14.2,1.09 -29.15,-26.84 -20.7,-40.1 -24.78,13.23 -0.81,46.76 -16.88,43.62 -7.23,21.4 36.41,33.63 10.11,89.4zm19.28 -91.32c1.32,0 2.39,1.07 2.39,2.39 0,1.32 -1.07,2.39 -2.39,2.39 -1.32,0 -2.39,-1.07 -2.39,-2.39 0,-1.32 1.07,-2.39 2.39,-2.39zm16.09 38.95c1.32,0 2.39,1.07 2.39,2.39 0,1.32 -1.07,2.39 -2.39,2.39 -1.32,0 -2.39,-1.07 -2.39,-2.39 0,-1.32 1.07,-2.39 2.39,-2.39zm-1.81 -10.85c1.32,0 2.39,1.07 2.39,2.39 0,1.32 -1.07,2.39 -2.39,2.39 -1.32,0 -2.39,-1.07 -2.39,-2.39 0,-1.32 1.07,-2.39 2.39,-2.39zm-2.97 -10.21c1.32,0 2.39,1.07 2.39,2.39 0,1.32 -1.07,2.39 -2.39,2.39 -1.32,0 -2.39,-1.07 -2.39,-2.39 0,-1.32 1.07,-2.39 2.39,-2.39zm-4.27 -8.27c1.32,0 2.39,1.07 2.39,2.39 0,1.32 -1.07,2.4 -2.39,2.4 -1.32,0 -2.39,-1.08 -2.39,-2.4 0,-1.32 1.07,-2.39 2.39,-2.39z"/>
  <path class="fil5" d="M207.64 178.95c-1.87,1.5 -3.2,3.14 -3.86,4.8 -0.39,1 -0.54,2.01 -0.4,2.98 0.13,0.98 0.55,1.94 1.29,2.86 1.15,1.43 3.06,2.75 5.84,3.85l0.71 0.28 -0.45 0.68c-0.25,0.38 -0.87,0.86 -1.64,1.48 -1.56,1.22 -3.84,3.02 -4.62,5.01 -0.89,2.24 0.27,4.89 7.1,7.59l0.3 0.11 0.06 0.35c0.24,1.38 0.2,2.62 0.17,3.68 -0.03,1.13 -0.06,2.04 0.29,2.53l0.03 0.04c0.89,1.51 1.28,2.73 1.45,3.59 0.36,-0.5 0.87,-1.18 1.62,-2.03l0.04 -0.04c0.85,-0.82 0.75,-2.46 0.61,-4.61 -0.11,-1.63 -0.23,-3.53 0.02,-5.67l0.01 -0.12 0.05 -0.1c0.66,-1.35 1.95,-2.65 3.26,-3.97 1.33,-1.33 2.68,-2.69 3.29,-4.03 0.87,-1.92 0.08,-3.99 -5.1,-6.34l-1.45 -0.66 1.49 -0.51c2.84,-0.98 4.65,-1.99 5.72,-3 0.88,-0.82 1.21,-1.61 1.19,-2.34 -0.02,-0.74 -0.41,-1.49 -0.98,-2.18 -1.01,-1.23 -2.56,-2.26 -3.76,-2.92l-0.97 -0.53 0.96 -0.57c7.31,-4.33 13.65,-11.06 18.67,-19.39 5.07,-8.43 8.78,-18.49 10.76,-29.35 -0.42,-0.64 -0.87,-1.26 -1.32,-1.88 -2.92,-4.01 -5.6,-7.71 0.09,-13.78 -8.03,-5.13 -6.41,-7.56 -4.75,-10.03 0.2,-0.29 0.39,-0.59 0.56,-0.88 -6.44,-3.18 -5.69,-5.23 -4.48,-8.54l0.19 -0.53c-4.29,-0.48 -6.1,-2.03 -6.63,-3.87 -0.45,-1.57 0.06,-3.29 0.79,-4.74 -2.57,-0.04 -5.13,-0.95 -7.56,-2.5 -3.9,-2.49 -7.47,-6.63 -10.16,-11.42 -2.7,-4.78 -4.51,-10.23 -4.9,-15.34 -0.28,-3.58 0.14,-7.01 1.45,-9.94 -11.78,7.47 -10.37,20.36 -9.33,29.89 0.41,3.68 0.76,6.87 0.3,9.18 -0.55,2.83 -2.18,4.31 -6.02,3.69 -2.22,7.35 1.84,13.75 6.73,21.44 8.84,13.91 20.3,31.94 3.5,67.56l-0.06 0.13 -0.1 0.09zm-4.85 4.29c0.72,-1.82 2.14,-3.61 4.11,-5.22 16.39,-34.85 5.17,-52.51 -3.49,-66.13 -5.18,-8.15 -9.47,-14.9 -6.7,-23.07l0.16 -0.48 0.44 0.08c3.39,0.67 4.79,-0.43 5.22,-2.65 0.41,-2.09 0.07,-5.19 -0.32,-8.76 -1.13,-10.34 -2.68,-24.5 11.65,-32.15l1.91 -1.03 -1.24 1.95c-1.94,3.04 -2.59,6.91 -2.28,11.02 0.38,4.91 2.14,10.17 4.74,14.79 2.59,4.62 6.03,8.61 9.78,10.99 2.58,1.65 5.3,2.53 7.98,2.32l1.13 -0.08 -0.64 1.06c-0.82,1.35 -1.62,3.17 -1.2,4.65 0.43,1.49 2.14,2.75 6.4,3.08l0.73 0.06 -0.25 0.78c-0.15,0.47 -0.32,0.91 -0.47,1.34 -0.99,2.69 -1.59,4.33 4.47,7.19l0.53 0.26 -0.26 0.59c-0.25,0.6 -0.61,1.13 -0.96,1.65 -1.31,1.96 -2.6,3.88 5.08,8.61l0.69 0.42 -0.59 0.59c-5.65,5.63 -3.21,8.99 -0.55,12.65 0.5,0.69 1.02,1.4 1.5,2.15l0.15 0.22 -0.05 0.27c-2,11.14 -5.79,21.45 -10.98,30.08 -4.91,8.15 -11.06,14.79 -18.15,19.23 1.09,0.68 2.29,1.59 3.15,2.64 0.73,0.89 1.24,1.9 1.27,2.99 0.03,1.1 -0.41,2.23 -1.58,3.33 -0.98,0.92 -2.49,1.83 -4.71,2.71 4.82,2.52 5.42,4.99 4.32,7.41 -0.7,1.54 -2.13,2.98 -3.54,4.39 -1.2,1.21 -2.39,2.41 -2.97,3.54 -0.22,1.96 -0.1,3.75 0,5.3 0.16,2.49 0.28,4.4 -0.98,5.63 -1.22,1.4 -1.79,2.28 -2.07,2.7 -0.3,0.48 -0.45,0.7 -0.86,0.52l0 0c-0.36,-0.15 -0.38,-0.38 -0.4,-0.8 -0.03,-0.54 -0.11,-1.97 -1.4,-4.16 -0.58,-0.85 -0.55,-1.95 -0.51,-3.32 0.03,-0.9 0.06,-1.93 -0.1,-3.06 -7.44,-3 -8.57,-6.27 -7.44,-9.14 0.91,-2.3 3.34,-4.22 5,-5.52 0.28,-0.23 0.54,-0.44 0.76,-0.62 -2.49,-1.1 -4.26,-2.4 -5.4,-3.81 -0.89,-1.11 -1.4,-2.29 -1.57,-3.51 -0.17,-1.22 0.01,-2.46 0.49,-3.68zm23.81 -96.74c0.8,0 1.52,0.32 2.05,0.85 0.55,0.55 0.89,1.31 0.89,2.16 0,0.85 -0.34,1.61 -0.89,2.16 -0.53,0.52 -1.25,0.85 -2.05,0.85 -0.8,0 -1.52,-0.33 -2.05,-0.85 -0.55,-0.55 -0.89,-1.31 -0.89,-2.16 0,-0.85 0.34,-1.61 0.89,-2.16 0.53,-0.53 1.25,-0.85 2.05,-0.85zm1.33 1.79c-0.34,-0.34 -0.81,-0.55 -1.33,-0.55 -0.52,0 -0.99,0.21 -1.33,0.55 -0.32,0.31 -0.51,0.75 -0.51,1.22 0,0.47 0.19,0.91 0.51,1.22 0.34,0.34 0.81,0.55 1.33,0.55 0.52,0 0.99,-0.21 1.33,-0.55 0.32,-0.31 0.52,-0.75 0.52,-1.22 0,-0.47 -0.2,-0.91 -0.52,-1.22zm14.76 37.16c0.79,0 1.52,0.33 2.05,0.86 0.55,0.54 0.88,1.31 0.88,2.15 0,0.85 -0.33,1.61 -0.88,2.16 -0.53,0.53 -1.26,0.86 -2.05,0.86 -0.8,0 -1.53,-0.33 -2.05,-0.86 -0.55,-0.55 -0.89,-1.31 -0.89,-2.16 0,-0.84 0.34,-1.61 0.89,-2.15 0.52,-0.53 1.25,-0.86 2.05,-0.86zm1.33 1.79c-0.34,-0.34 -0.81,-0.55 -1.33,-0.55 -0.52,0 -1,0.21 -1.33,0.55 -0.32,0.32 -0.52,0.75 -0.52,1.22 0,0.48 0.2,0.91 0.52,1.23 0.33,0.33 0.81,0.54 1.33,0.54 0.52,0 0.99,-0.21 1.33,-0.54 0.31,-0.32 0.51,-0.75 0.51,-1.23 0,-0.47 -0.2,-0.9 -0.51,-1.22zm-3.14 -12.64c0.8,0 1.52,0.33 2.05,0.85 0.55,0.55 0.89,1.31 0.89,2.16 0,0.85 -0.34,1.61 -0.89,2.16 -0.53,0.53 -1.25,0.85 -2.05,0.85 -0.8,0 -1.52,-0.32 -2.05,-0.85 -0.55,-0.55 -0.89,-1.31 -0.89,-2.16 0,-0.85 0.34,-1.61 0.89,-2.16 0.53,-0.52 1.25,-0.85 2.05,-0.85zm1.33 1.79c-0.34,-0.34 -0.81,-0.55 -1.33,-0.55 -0.52,0 -0.99,0.21 -1.33,0.55 -0.32,0.31 -0.51,0.75 -0.51,1.22 0,0.47 0.19,0.91 0.51,1.22 0.34,0.34 0.81,0.55 1.33,0.55 0.52,0 0.99,-0.21 1.33,-0.55 0.32,-0.31 0.51,-0.75 0.51,-1.22 0,-0.47 -0.19,-0.91 -0.51,-1.22zm-4.3 -12c0.79,0 1.52,0.33 2.05,0.86 0.55,0.55 0.88,1.31 0.88,2.15 0,0.85 -0.33,1.61 -0.88,2.16 -0.53,0.53 -1.26,0.86 -2.05,0.86 -0.8,0 -1.53,-0.33 -2.05,-0.86 -0.55,-0.55 -0.89,-1.31 -0.89,-2.16 0,-0.84 0.34,-1.6 0.89,-2.15 0.52,-0.53 1.25,-0.86 2.05,-0.86zm1.33 1.79c-0.34,-0.34 -0.81,-0.55 -1.33,-0.55 -0.53,0 -1,0.21 -1.33,0.55 -0.32,0.32 -0.52,0.75 -0.52,1.22 0,0.48 0.2,0.91 0.52,1.23 0.33,0.33 0.8,0.54 1.33,0.54 0.52,0 0.99,-0.21 1.33,-0.54 0.31,-0.32 0.51,-0.75 0.51,-1.23 0,-0.47 -0.2,-0.9 -0.51,-1.22zm-5.6 -10.06c0.8,0 1.53,0.33 2.05,0.86 0.55,0.55 0.89,1.31 0.89,2.15 0,0.85 -0.34,1.61 -0.89,2.16 -0.52,0.53 -1.25,0.86 -2.05,0.86 -0.79,0 -1.52,-0.33 -2.05,-0.86 -0.54,-0.55 -0.88,-1.31 -0.88,-2.16 0,-0.84 0.34,-1.6 0.88,-2.15 0.53,-0.53 1.26,-0.86 2.05,-0.86zm1.33 1.79c-0.33,-0.33 -0.8,-0.54 -1.33,-0.54 -0.52,0 -0.99,0.21 -1.33,0.54 -0.31,0.32 -0.51,0.75 -0.51,1.22 0,0.48 0.2,0.91 0.51,1.23 0.34,0.33 0.81,0.54 1.33,0.54 0.53,0 1,-0.21 1.33,-0.54 0.32,-0.32 0.52,-0.75 0.52,-1.23 0,-0.47 -0.2,-0.9 -0.52,-1.22z"/>
  <path class="fil7" d="M208.78 214.99l10.78 -0.29c1.45,2.2 2.49,8.97 -0.93,15.84 -0.02,8.9 2.01,19.54 0.29,28.16 -1.45,7.21 -5.44,13.36 -9.94,13.83 -5.26,0.55 -8.71,-4.52 -3.83,-9.78 3.08,-3.31 6.65,-6.56 6.59,-9.15 -4.02,-7.55 0.73,-11.44 -0.51,-22.91 -4.28,-5.47 -3.38,-13.67 -2.45,-15.7z"/>
  <path class="fil5" d="M208.77 214.36l10.78 -0.3 0.27 0 0.17 0.25c0.9,1.36 1.65,4.29 1.44,7.87 -0.15,2.59 -0.8,5.55 -2.26,8.53 0,2.99 0.24,6.24 0.48,9.53 0.47,6.35 0.95,12.88 -0.2,18.6 -0.76,3.8 -2.22,7.32 -4.08,9.91 -1.8,2.51 -4,4.17 -6.34,4.41 -1.49,0.16 -2.84,-0.11 -3.94,-0.69 -1,-0.53 -1.79,-1.32 -2.28,-2.29l0 0c-0.5,-0.99 -0.68,-2.17 -0.45,-3.44 0.25,-1.41 1.01,-2.94 2.42,-4.45 0.5,-0.55 1,-1.06 1.48,-1.57 2.47,-2.59 4.85,-5.08 4.93,-6.94 -2.28,-4.39 -1.75,-7.56 -1.07,-11.59 0.5,-2.97 1.08,-6.43 0.59,-11.22 -1.7,-2.25 -2.59,-4.91 -2.99,-7.44 -0.61,-3.9 -0.01,-7.53 0.58,-8.83l0.15 -0.33 0.32 -0.01zm10.51 0.98l-10.15 0.28c-0.47,1.36 -0.85,4.38 -0.34,7.69 0.37,2.38 1.21,4.87 2.84,6.95l0.11 0.15 0.03 0.2c0.55,5.11 -0.06,8.73 -0.58,11.82 -0.64,3.81 -1.14,6.8 1.01,10.84l0.08 0.15 0 0.17c0.06,2.47 -2.56,5.21 -5.29,8.07 -0.5,0.52 -1,1.05 -1.47,1.55 -1.23,1.33 -1.89,2.62 -2.1,3.79 -0.17,0.94 -0.03,1.81 0.33,2.54l0 0c0.38,0.75 1,1.36 1.79,1.78 0.94,0.49 2.1,0.72 3.4,0.58 2.03,-0.21 3.97,-1.7 5.6,-3.96 1.75,-2.45 3.12,-5.78 3.85,-9.38 1.1,-5.53 0.63,-11.96 0.18,-18.22 -0.25,-3.35 -0.49,-6.66 -0.48,-9.8l0 -0.17 0.07 -0.15c1.41,-2.84 2.04,-5.66 2.18,-8.13 0.18,-3.03 -0.36,-5.49 -1.06,-6.75z"/>
  <path class="fil4" d="M265.27 52.62c-0.13,3.93 -0.09,2.47 -0.47,12.15 -3.81,1.54 -2.54,0.92 -11.56,4.71 -3.71,0.61 -6.4,-6.48 -2.07,-6.95 -4.58,-4.62 -0.22,-11.02 5.36,-8.92 0.46,-4.69 7.73,-4.59 8.74,-0.99z"/>
  <path class="fil5" d="M265.81 52.68c-0.1,2.67 -0.1,2.86 -0.22,5.7l-0.26 6.43c-0.01,0.21 -0.13,0.38 -0.31,0.45l0 0c-1.22,0.5 -1.9,0.76 -2.55,1.02 -1.48,0.57 -2.82,1.1 -9,3.7 -0.04,0.02 -0.08,0.03 -0.12,0.03l0 0c-1.79,0.3 -3.36,-0.9 -4.23,-2.45 -0.3,-0.54 -0.51,-1.13 -0.63,-1.71 -0.11,-0.59 -0.12,-1.18 0.01,-1.72 0.21,-0.86 0.74,-1.57 1.68,-1.92 -1.07,-1.35 -1.51,-2.8 -1.46,-4.16 0.03,-1.03 0.35,-2.01 0.88,-2.84 0.54,-0.82 1.29,-1.51 2.19,-1.96 1.21,-0.6 2.7,-0.79 4.31,-0.34 0.27,-1.2 0.98,-2.07 1.9,-2.64 0.74,-0.46 1.62,-0.72 2.51,-0.79 0.89,-0.07 1.8,0.06 2.61,0.36 1.27,0.46 2.31,1.37 2.67,2.66 0.02,0.06 0.02,0.12 0.02,0.18zm-1.29 5.6c0.11,-2.85 0.12,-3.06 0.21,-5.62 -0.27,-0.86 -1.02,-1.48 -1.94,-1.82 -0.66,-0.25 -1.41,-0.34 -2.14,-0.29 -0.74,0.06 -1.45,0.26 -2.05,0.64 -0.81,0.5 -1.41,1.31 -1.53,2.46 0,0.05 -0.01,0.1 -0.03,0.15 -0.09,0.28 -0.39,0.42 -0.68,0.31 -1.51,-0.57 -2.93,-0.45 -4.05,0.11 -0.74,0.37 -1.36,0.93 -1.8,1.61 -0.43,0.68 -0.69,1.47 -0.72,2.31 -0.04,1.31 0.48,2.74 1.75,4.03 0.09,0.08 0.14,0.19 0.16,0.31 0.05,0.29 -0.15,0.55 -0.44,0.59 -1.02,0.11 -1.55,0.65 -1.72,1.36 -0.09,0.39 -0.08,0.82 0,1.27 0.09,0.46 0.27,0.93 0.51,1.37 0.65,1.16 1.77,2.06 3.02,1.89 6.2,-2.61 7.51,-3.12 8.97,-3.69 0.61,-0.24 1.26,-0.49 2.23,-0.88l0.25 -6.11z"/>
  <path class="fil2" d="M253.83 57.81c2.43,0.91 3.99,-1.12 10.45,1.17 0.11,-2.59 -0.85,-6.12 2.06,-9.26 0.54,4.46 9.95,9.93 3.41,18.98 -6.59,8.98 -14.04,2.21 -18.75,3.37 1.53,-5.29 5.83,-4.43 7.86,-5.33 -3.44,-3.74 -3.4,-6.73 -5.03,-8.93z"/>
  <path class="fil5" d="M254 57.31c0.81,0.3 1.56,0.22 2.49,0.12 1.57,-0.16 3.6,-0.38 7.26,0.81 -0.01,-0.33 -0.02,-0.67 -0.04,-1.02 -0.1,-2.41 -0.21,-5.24 2.22,-7.87 0.2,-0.21 0.54,-0.22 0.76,-0.01 0.1,0.1 0.16,0.22 0.18,0.35l0 0c0.15,1.23 1.12,2.64 2.2,4.22 2.62,3.82 5.87,8.55 1.12,15.12l-0.02 0.02c-4.69,6.37 -9.76,5.13 -14.06,4.08 -1.87,-0.46 -3.58,-0.88 -4.95,-0.54 -0.29,0.07 -0.59,-0.11 -0.67,-0.4 -0.03,-0.1 -0.03,-0.2 0,-0.3l-0.01 0c1.24,-4.28 4.14,-4.8 6.41,-5.21 0.37,-0.07 0.72,-0.13 1.03,-0.21 -1.79,-2.12 -2.52,-3.99 -3.16,-5.6 -0.41,-1.04 -0.77,-1.97 -1.35,-2.75 -0.19,-0.25 -0.14,-0.58 0.09,-0.75 0.15,-0.11 0.34,-0.12 0.5,-0.06zm2.66 1.19c-0.62,0.07 -1.18,0.13 -1.74,0.09 0.32,0.6 0.57,1.24 0.84,1.93 0.66,1.67 1.43,3.64 3.47,5.85 0.04,0.05 0.08,0.1 0.11,0.15 0.13,0.28 0.02,0.59 -0.24,0.71 -0.56,0.25 -1.23,0.37 -1.96,0.5 -1.84,0.34 -4.15,0.75 -5.33,3.67 1.37,-0.08 2.89,0.29 4.51,0.69 3.99,0.97 8.69,2.13 12.98,-3.7l0.01 -0.02c4.32,-5.97 1.31,-10.34 -1.12,-13.89 -0.87,-1.27 -1.67,-2.44 -2.1,-3.58 -1.48,2.1 -1.38,4.37 -1.3,6.33 0.02,0.61 0.05,1.19 0.02,1.76 0.01,0.06 0,0.11 -0.02,0.17 -0.09,0.28 -0.39,0.42 -0.67,0.32 -3.85,-1.36 -5.9,-1.14 -7.46,-0.98z"/>
  <path class="fil4" d="M283.89 65.81c-0.67,4.37 -0.42,2.75 -2.12,13.5 -4.5,1.23 -2.99,0.7 -13.68,3.77 -4.27,0.2 -6.39,-8.07 -1.43,-8.03 -4.57,-5.76 1.18,-12.34 7.22,-9.27 1.13,-5.18 9.34,-4.12 10.01,0.03z"/>
  <path class="fil5" d="M284.4 65.94c-0.47,3.1 -0.51,3.29 -1,6.41l-1.12 7.07c-0.03,0.2 -0.17,0.35 -0.36,0.4 -1.37,0.37 -2.2,0.59 -3,0.79 -1.71,0.44 -3.26,0.85 -10.66,2.97 -0.04,0.01 -0.08,0.02 -0.12,0.02l0 0c-2.02,0.09 -3.61,-1.43 -4.37,-3.25 -0.27,-0.63 -0.43,-1.3 -0.48,-1.95 -0.05,-0.66 0.02,-1.31 0.23,-1.88 0.35,-0.94 1.06,-1.66 2.21,-1.9 -1.07,-1.64 -1.39,-3.32 -1.18,-4.83 0.17,-1.14 0.64,-2.18 1.33,-3.03 0.69,-0.84 1.61,-1.5 2.67,-1.89 1.47,-0.54 3.21,-0.56 4.99,0.19 0.44,-1.32 1.35,-2.22 2.46,-2.74l0.03 -0.01c0.88,-0.41 1.89,-0.58 2.89,-0.54l0 0c1.01,0.04 2.01,0.3 2.88,0.74 1.34,0.67 2.37,1.79 2.6,3.24 0.01,0.07 0.01,0.13 0,0.19zm-2.02 6.2c0.53,-3.36 0.56,-3.58 0.99,-6.35 -0.2,-1.04 -0.98,-1.85 -2,-2.37 -0.73,-0.36 -1.58,-0.58 -2.44,-0.61l0 0 0 0c-0.84,-0.04 -1.69,0.1 -2.42,0.45l-0.03 0.01c-1,0.47 -1.8,1.33 -2.09,2.64l0 0c-0.01,0.04 -0.02,0.08 -0.04,0.11 -0.12,0.25 -0.43,0.35 -0.69,0.22 -1.68,-0.86 -3.34,-0.9 -4.71,-0.4 -0.89,0.33 -1.66,0.89 -2.25,1.61 -0.59,0.71 -0.98,1.58 -1.12,2.54 -0.21,1.46 0.2,3.14 1.48,4.75l0 0c0.07,0.09 0.12,0.2 0.12,0.32 0.01,0.28 -0.21,0.51 -0.5,0.51 -1.2,-0.01 -1.89,0.55 -2.19,1.35 -0.16,0.43 -0.21,0.93 -0.17,1.45 0.04,0.54 0.18,1.1 0.4,1.63 0.6,1.41 1.79,2.6 3.27,2.57 7.28,-2.09 8.87,-2.51 10.62,-2.96 0.72,-0.19 1.46,-0.38 2.7,-0.71l1.07 -6.76z"/>
  <path class="fil2" d="M270.28 70.12c2.63,1.33 4.66,-0.73 11.66,2.66 0.46,-2.88 -0.17,-6.94 3.53,-10.07 0.04,5.05 9.96,12.38 1.39,21.65 -8.62,9.17 -16.16,0.64 -21.63,1.32 2.41,-5.71 7.17,-4.18 9.57,-4.93 -3.4,-4.63 -2.96,-7.96 -4.52,-10.63z"/>
  <path class="fil5" d="M270.5 69.66c0.9,0.46 1.77,0.47 2.85,0.48 1.8,0.01 4.14,0.04 8.16,1.88 0.04,-0.4 0.08,-0.83 0.11,-1.27 0.2,-2.68 0.43,-5.84 3.5,-8.44 0.22,-0.18 0.54,-0.14 0.74,0.08 0.08,0.1 0.13,0.22 0.13,0.35l0 0c0.01,1.42 0.93,3.13 1.95,5.04 2.45,4.59 5.49,10.26 -0.69,16.94l-0.02 0.01c-6.09,6.48 -11.64,4.44 -16.34,2.71l-0.02 -0.01c-2.06,-0.75 -3.94,-1.44 -5.55,-1.24 -0.28,0.03 -0.55,-0.17 -0.6,-0.45 -0.02,-0.1 -0.01,-0.2 0.03,-0.29l0 0c1.93,-4.57 5.25,-4.78 7.85,-4.94 0.48,-0.03 0.93,-0.06 1.33,-0.11 -1.8,-2.65 -2.39,-4.85 -2.91,-6.76 -0.33,-1.22 -0.62,-2.32 -1.18,-3.27 -0.15,-0.26 -0.07,-0.57 0.17,-0.7 0.16,-0.09 0.34,-0.08 0.49,-0.01l0 0zm2.89 1.51c-0.77,-0.01 -1.44,-0.01 -2.11,-0.16 0.3,0.76 0.51,1.55 0.74,2.41 0.54,1.97 1.16,4.27 3.19,7.03l0 0c0.03,0.05 0.06,0.09 0.08,0.15 0.09,0.27 -0.04,0.56 -0.31,0.64 -0.65,0.21 -1.42,0.25 -2.26,0.31 -2.17,0.13 -4.9,0.3 -6.64,3.57 1.59,0.06 3.28,0.68 5.1,1.34l0.02 0.01c4.42,1.62 9.61,3.53 15.27,-2.47l0 -0.01c5.7,-6.15 2.86,-11.46 0.56,-15.76 -0.85,-1.59 -1.64,-3.06 -1.94,-4.42 -2.07,2.2 -2.27,4.82 -2.44,7.07 -0.05,0.7 -0.1,1.36 -0.2,1.99 0,0.05 -0.02,0.1 -0.04,0.14 -0.11,0.26 -0.42,0.36 -0.68,0.23 -4.19,-2.03 -6.55,-2.05 -8.34,-2.07z"/>
  <path class="fil4" d="M302.84 88.06c-2.43,3.86 -1.53,2.43 -7.57,11.93 -4.94,-0.66 -3.23,-0.55 -15.04,-1.96 -4.3,-1.54 -3.04,-10.22 1.84,-8.18 -2.19,-7.3 6.16,-11.21 10.89,-5.87 3.21,-4.44 10.89,-0.13 9.88,4.08z"/>
  <path class="fil5" d="M303.28 88.35c-1.78,2.83 -1.88,3 -3.57,5.64l-4 6.29c-0.1,0.17 -0.3,0.25 -0.49,0.22 -1.49,-0.2 -2.41,-0.33 -3.29,-0.46 -1.89,-0.27 -3.6,-0.52 -11.73,-1.49 -0.06,-0.01 -0.11,-0.02 -0.16,-0.05 -1.98,-0.73 -2.91,-2.75 -2.95,-4.74 -0.01,-0.7 0.09,-1.4 0.3,-2.04 0.21,-0.64 0.53,-1.23 0.96,-1.68 0.73,-0.79 1.74,-1.2 3.01,-0.94 -0.38,-1.92 -0.07,-3.59 0.69,-4.92 0.59,-1.03 1.46,-1.84 2.47,-2.39 1.02,-0.55 2.18,-0.83 3.38,-0.8 1.72,0.05 3.51,0.74 5.01,2.21 0.98,-1.08 2.25,-1.56 3.56,-1.6 1.07,-0.04 2.17,0.22 3.17,0.69 0.99,0.47 1.89,1.14 2.56,1.93 0.97,1.16 1.48,2.57 1.14,3.98 -0.01,0.06 -0.03,0.11 -0.06,0.15l0 0zm-4.45 5.05c1.9,-2.99 2.04,-3.2 3.52,-5.56 0.22,-1.04 -0.18,-2.09 -0.93,-2.97 -0.57,-0.67 -1.33,-1.25 -2.19,-1.65 -0.85,-0.4 -1.77,-0.62 -2.67,-0.59 -1.2,0.04 -2.34,0.53 -3.16,1.66 -0.03,0.03 -0.05,0.06 -0.09,0.09 -0.21,0.19 -0.54,0.16 -0.73,-0.06 -1.36,-1.54 -3.04,-2.25 -4.65,-2.29 -1.02,-0.03 -2.01,0.21 -2.88,0.68 -0.86,0.46 -1.59,1.15 -2.09,2.02 -0.75,1.3 -0.99,3.01 -0.39,5l0 0c0.03,0.1 0.03,0.22 -0.01,0.33 -0.1,0.26 -0.4,0.38 -0.67,0.27 -1.21,-0.51 -2.15,-0.24 -2.77,0.43 -0.33,0.35 -0.58,0.81 -0.75,1.33 -0.17,0.53 -0.25,1.11 -0.24,1.7 0.03,1.58 0.72,3.17 2.2,3.74 8.08,0.96 9.8,1.21 11.7,1.49 0.78,0.11 1.59,0.23 2.97,0.41l3.83 -6.03z"/>
  <path class="fil2" d="M287.56 86.4c2.01,2.26 4.77,1.16 10.18,7.04 1.58,-2.47 2.58,-6.47 7.37,-7.9 -1.96,4.68 4.7,15.35 -7.2,20.52 -11.92,5.07 -15.81,-5.77 -21.35,-7.29 4.57,-4.32 8.55,-1.04 11.16,-0.79 -1.45,-5.6 0.29,-8.5 -0.16,-11.58z"/>
  <path class="fil5" d="M287.94 86.07c0.69,0.78 1.53,1.13 2.57,1.56 1.72,0.73 3.97,1.67 7.12,4.96 0.2,-0.36 0.4,-0.74 0.61,-1.14 1.25,-2.39 2.72,-5.22 6.7,-6.4 0.27,-0.08 0.56,0.07 0.66,0.35 0.04,0.13 0.04,0.27 -0.02,0.38 -0.54,1.32 -0.33,3.25 -0.11,5.41 0.56,5.2 1.24,11.62 -7.34,15.35l-0.02 0.01c-8.42,3.56 -12.95,-0.49 -16.79,-3.93 -1.69,-1.52 -3.24,-2.9 -4.87,-3.36 -0.28,-0.07 -0.46,-0.36 -0.4,-0.63 0.03,-0.11 0.08,-0.2 0.16,-0.26 3.65,-3.44 6.92,-2.33 9.48,-1.45 0.48,0.16 0.94,0.31 1.35,0.42 -0.69,-3.16 -0.4,-5.43 -0.14,-7.4 0.16,-1.25 0.31,-2.38 0.15,-3.49 -0.04,-0.28 0.15,-0.54 0.44,-0.56 0.17,-0.02 0.34,0.05 0.45,0.18l0 0zm2.2 2.51c-0.74,-0.31 -1.39,-0.58 -1.98,-0.99 -0.01,0.82 -0.12,1.65 -0.23,2.54 -0.27,2.02 -0.58,4.4 0.29,7.75l0 0c0.01,0.05 0.02,0.1 0.02,0.16 -0.02,0.28 -0.26,0.49 -0.55,0.46 -0.7,-0.07 -1.46,-0.33 -2.29,-0.61 -2.15,-0.73 -4.85,-1.65 -7.83,0.7 1.52,0.68 2.92,1.93 4.42,3.27 3.61,3.24 7.86,7.05 15.68,3.73l0.01 -0.01c7.92,-3.44 7.28,-9.46 6.76,-14.34 -0.19,-1.81 -0.36,-3.47 -0.11,-4.86 -2.89,1.22 -4.11,3.57 -5.17,5.59 -0.32,0.62 -0.63,1.22 -0.98,1.77l0 0c-0.02,0.03 -0.05,0.06 -0.08,0.09 -0.21,0.19 -0.54,0.17 -0.74,-0.05 -3.24,-3.53 -5.5,-4.48 -7.22,-5.2z"/>
  <path class="fil4" d="M315.23 111.31c-2.89,3.58 -1.82,2.25 -8.98,11.03 -4.91,-1.21 -3.2,-0.91 -14.95,-3.64 -4.16,-2.03 -1.91,-10.54 2.79,-7.95 -1.38,-7.53 7.48,-10.48 11.64,-4.62 3.74,-4.07 11,1.1 9.5,5.18z"/>
  <g>
   <path class="fil5" d="M315.62 111.67c-2.17,2.69 -2.3,2.85 -4.21,5.2 -1.01,1.23 -2.46,3.01 -4.75,5.82 -0.13,0.16 -0.35,0.21 -0.55,0.15 -1.53,-0.38 -2.4,-0.61 -3.24,-0.82 -1.88,-0.49 -3.6,-0.94 -11.66,-2.82 -0.04,-0.01 -0.08,-0.02 -0.11,-0.04l0 0c-1.93,-0.94 -2.66,-3.06 -2.48,-5.05 0.07,-0.7 0.24,-1.39 0.52,-2 0.28,-0.62 0.67,-1.17 1.14,-1.58 0.83,-0.71 1.91,-1.02 3.17,-0.62 -0.16,-1.93 0.33,-3.54 1.23,-4.77 0.71,-0.98 1.67,-1.7 2.76,-2.14 1.08,-0.44 2.3,-0.59 3.51,-0.43 1.73,0.24 3.47,1.13 4.82,2.78 1.12,-0.98 2.47,-1.32 3.81,-1.2 1.08,0.09 2.17,0.49 3.12,1.07 0.94,0.59 1.77,1.37 2.35,2.24 0.83,1.25 1.17,2.7 0.67,4.05 -0.02,0.06 -0.06,0.11 -0.1,0.16zm-5.04 4.51c2.33,-2.86 2.5,-3.06 4.18,-5.14 0.33,-1 0.06,-2.08 -0.57,-3.03 -0.49,-0.74 -1.2,-1.41 -2.01,-1.91 -0.81,-0.5 -1.73,-0.83 -2.64,-0.91 -1.22,-0.11 -2.44,0.25 -3.4,1.28 -0.03,0.04 -0.06,0.07 -0.1,0.1 -0.23,0.16 -0.56,0.09 -0.73,-0.15 -1.21,-1.7 -2.83,-2.6 -4.45,-2.81 -1.03,-0.14 -2.06,-0.01 -2.99,0.36 -0.92,0.38 -1.74,0.99 -2.34,1.81 -0.88,1.2 -1.3,2.87 -0.93,4.9l0 0c0.02,0.11 0.01,0.22 -0.05,0.32 -0.12,0.25 -0.44,0.34 -0.7,0.2 -1.17,-0.65 -2.15,-0.47 -2.86,0.14 -0.37,0.31 -0.67,0.75 -0.89,1.24 -0.24,0.52 -0.38,1.09 -0.44,1.68 -0.14,1.57 0.39,3.22 1.8,3.94 8.06,1.88 9.76,2.32 11.63,2.81 0.8,0.21 1.63,0.42 2.94,0.75 2.18,-2.67 3.58,-4.38 4.55,-5.58zm5.04 -4.51c-0.14,0.15 -0.36,0.2 -0.57,0.12l0.57 -0.12z"/>
  </g>
  <path class="fil2" d="M300.07 108.18c1.81,2.54 4.8,1.74 9.71,8.38 1.92,-2.35 3.42,-6.32 8.54,-7.22 -2.56,4.55 3.09,16.24 -9.83,20.15 -12.93,3.8 -15.69,-7.74 -21.24,-9.94 5.23,-3.88 8.97,-0.07 11.63,0.5 -0.84,-5.91 1.29,-8.67 1.19,-11.87z"/>
  <g>
   <path class="fil5" d="M300.49 107.89c0.62,0.88 1.45,1.33 2.47,1.9 1.71,0.94 3.93,2.17 6.81,5.91 0.25,-0.35 0.51,-0.72 0.77,-1.11 1.57,-2.3 3.42,-5.02 7.67,-5.77 0.28,-0.05 0.56,0.14 0.62,0.43 0.03,0.13 0.01,0.26 -0.05,0.36 -0.72,1.29 -0.74,3.3 -0.75,5.54 -0.03,5.38 -0.07,12.02 -9.37,14.84l0 0 -0.01 0 0 0c-9.13,2.68 -13.34,-1.99 -16.91,-5.96 -1.58,-1.74 -3.02,-3.34 -4.66,-4 -0.28,-0.11 -0.42,-0.41 -0.33,-0.68 0.04,-0.09 0.1,-0.17 0.17,-0.22l0 0c4.19,-3.11 7.44,-1.59 9.99,-0.4 0.48,0.22 0.94,0.44 1.36,0.59 -0.35,-3.31 0.22,-5.61 0.72,-7.59 0.31,-1.27 0.59,-2.4 0.56,-3.56 -0.01,-0.29 0.21,-0.52 0.5,-0.51 0.18,0 0.34,0.09 0.44,0.23l0 0zm2 2.81c-0.74,-0.41 -1.38,-0.77 -1.96,-1.26 -0.1,0.85 -0.31,1.69 -0.53,2.59 -0.51,2.04 -1.11,4.43 -0.6,7.97l0 0c0.01,0.05 0.01,0.1 0,0.16 -0.05,0.28 -0.32,0.46 -0.6,0.4 -0.72,-0.16 -1.47,-0.51 -2.3,-0.89 -2.14,-1 -4.85,-2.26 -8.21,-0.18 1.5,0.87 2.81,2.31 4.21,3.87 3.36,3.73 7.32,8.13 15.81,5.63 8.61,-2.61 8.65,-8.85 8.68,-13.9 0.01,-1.88 0.02,-3.62 0.45,-5.01 -3.15,0.91 -4.7,3.18 -6.03,5.13 -0.41,0.61 -0.81,1.19 -1.22,1.7l0 0c-0.03,0.03 -0.06,0.06 -0.09,0.08 -0.23,0.17 -0.56,0.11 -0.74,-0.13 -2.94,-3.99 -5.17,-5.22 -6.87,-6.16zm5.82 18.29l0 0 0 0z"/>
  </g>
  <path class="fil4" d="M319.07 142.18c-4.31,1.83 -2.71,1.15 -13.38,5.61 -4,-3.31 -2.56,-2.26 -12.19,-10.04 -2.93,-3.69 3.05,-10.15 6.22,-5.73 2.17,-7.26 11.74,-5.81 12.92,1.25 5.33,-1.87 9.69,6 6.43,8.91z"/>
  <path class="fil5" d="M319.26 142.66c-3.02,1.29 -3.22,1.37 -6.31,2.66l-7.04 2.95c-0.18,0.08 -0.39,0.04 -0.54,-0.09l0 0c-1.21,-1 -1.95,-1.63 -2.66,-2.22 -1.52,-1.3 -2.91,-2.48 -9.52,-7.82 -0.04,-0.03 -0.08,-0.06 -0.1,-0.1 -1.3,-1.65 -1.06,-3.75 -0.07,-5.39 0.37,-0.6 0.83,-1.14 1.35,-1.57l0 0c0.54,-0.43 1.14,-0.76 1.76,-0.93 1.15,-0.32 2.36,-0.12 3.39,0.87 0.7,-1.73 1.85,-2.91 3.19,-3.59 1.12,-0.57 2.37,-0.8 3.61,-0.69 1.24,0.1 2.46,0.52 3.53,1.24 1.49,1 2.68,2.58 3.17,4.64 1.58,-0.38 3.05,0 4.29,0.81 0.94,0.61 1.73,1.47 2.32,2.44 0.58,0.96 0.95,2.03 1.05,3.06 0.14,1.4 -0.23,2.72 -1.25,3.64 -0.05,0.04 -0.11,0.07 -0.17,0.09zm-6.75 1.71c3.28,-1.37 3.51,-1.47 6.26,-2.64 0.73,-0.68 0.99,-1.69 0.89,-2.75 -0.09,-0.88 -0.41,-1.79 -0.91,-2.62 -0.5,-0.82 -1.18,-1.56 -1.97,-2.08 -1.13,-0.73 -2.5,-1.03 -3.95,-0.52l0 0c-0.04,0.01 -0.07,0.02 -0.11,0.03 -0.28,0.03 -0.55,-0.17 -0.59,-0.46 -0.34,-2.03 -1.43,-3.56 -2.82,-4.5 -0.92,-0.62 -1.97,-0.98 -3.02,-1.07 -1.06,-0.08 -2.12,0.1 -3.08,0.59 -1.32,0.68 -2.42,1.93 -2.99,3.84l0 0c-0.03,0.1 -0.1,0.19 -0.19,0.26 -0.23,0.16 -0.55,0.09 -0.72,-0.15 -0.83,-1.15 -1.88,-1.43 -2.86,-1.16 -0.48,0.13 -0.96,0.4 -1.4,0.75 -0.44,0.37 -0.83,0.82 -1.14,1.33 -0.78,1.29 -1.01,2.93 -0.05,4.18 6.62,5.34 7.99,6.5 9.5,7.79 0.63,0.52 1.28,1.08 2.4,2.01l6.75 -2.83z"/>
  <path class="fil2" d="M306.45 132.49c0.51,3.07 3.65,3.73 5.16,11.82 2.86,-1.19 6.07,-4 11.24,-2.45 -4.47,2.83 -4.58,15.71 -18.36,13.25 -13.73,-2.56 -11.01,-13.98 -15.15,-18.46 6.64,-1.03 8.35,4.04 10.57,5.75 1.92,-5.58 5.17,-7.04 6.54,-9.91z"/>
  <g>
   <path class="fil5" d="M306.96 132.44c0.17,1.05 0.73,1.83 1.42,2.8 1.15,1.61 2.65,3.71 3.6,8.33 0.41,-0.19 0.82,-0.41 1.25,-0.63 2.51,-1.31 5.46,-2.86 9.74,-1.58 0.28,0.09 0.45,0.37 0.38,0.65 -0.03,0.13 -0.12,0.23 -0.22,0.29 -1.26,0.81 -2.19,2.57 -3.23,4.54 -2.49,4.72 -5.57,10.54 -15.48,8.78l0 -0.01 0 0.01c-9.69,-1.81 -11.46,-7.85 -12.95,-12.97 -0.66,-2.26 -1.27,-4.33 -2.5,-5.66 -0.19,-0.22 -0.19,-0.54 0.02,-0.73 0.07,-0.07 0.16,-0.11 0.26,-0.12 5.29,-0.82 7.6,2 9.42,4.21 0.35,0.42 0.68,0.83 1.01,1.16 1.19,-3.09 2.78,-4.85 4.15,-6.38 0.87,-0.97 1.65,-1.84 2.15,-2.88 0.12,-0.25 0.43,-0.35 0.68,-0.21 0.17,0.08 0.27,0.24 0.3,0.4zm0.59 3.37c-0.5,-0.7 -0.94,-1.32 -1.25,-2.02 -0.48,0.7 -1.06,1.35 -1.69,2.05 -1.41,1.57 -3.06,3.4 -4.21,6.74 -0.01,0.05 -0.04,0.1 -0.07,0.15 -0.17,0.22 -0.49,0.25 -0.72,0.07 -0.6,-0.46 -1.14,-1.11 -1.72,-1.82 -1.54,-1.88 -3.48,-4.23 -7.58,-3.92 1.01,1.45 1.56,3.33 2.15,5.34 1.41,4.83 3.07,10.52 12.1,12.2l0 0c9.18,1.64 12.08,-3.84 14.42,-8.28 0.88,-1.67 1.69,-3.19 2.73,-4.22 -3.35,-0.65 -5.83,0.64 -7.97,1.76 -0.66,0.34 -1.29,0.68 -1.91,0.93l0 0c-0.04,0.02 -0.08,0.03 -0.12,0.03 -0.29,0.04 -0.55,-0.16 -0.61,-0.44 -0.9,-4.86 -2.41,-6.97 -3.55,-8.57zm15.58 6.49c-0.12,0.07 -0.26,0.09 -0.41,0.05l0.41 -0.05z"/>
  </g>
  <path class="fil4" d="M313.94 170.75c-4.89,0.25 -3.08,0.16 -15.14,0.71 -2.79,-4.53 -1.73,-3.04 -8.53,-13.76 -1.61,-4.52 6.53,-8.6 8.12,-3.29 4.66,-6.15 13.59,-1.46 12.29,5.66 5.91,0.06 7.48,9.05 3.26,10.68z"/>
  <path class="fil5" d="M313.99 171.24c-3.31,0.17 -3.53,0.18 -7.16,0.34l-7.98 0.37c-0.2,0.01 -0.38,-0.1 -0.48,-0.27 -0.84,-1.38 -1.34,-2.21 -1.82,-3.02 -1.05,-1.73 -1.99,-3.31 -6.69,-10.72 -0.02,-0.04 -0.04,-0.09 -0.06,-0.13 -0.68,-1.95 0.23,-3.81 1.7,-5.01 0.55,-0.45 1.19,-0.82 1.85,-1.06 0.68,-0.24 1.38,-0.36 2.05,-0.32 1.28,0.07 2.45,0.68 3.13,2.03 1.3,-1.41 2.85,-2.15 4.41,-2.33 1.32,-0.16 2.65,0.07 3.85,0.62 1.19,0.55 2.26,1.4 3.05,2.49 1.06,1.45 1.64,3.31 1.41,5.38 1.75,0.19 3.12,1.12 4.06,2.38 0.67,0.9 1.13,1.98 1.35,3.07 0.22,1.1 0.2,2.22 -0.06,3.2 -0.36,1.34 -1.17,2.45 -2.46,2.95 -0.05,0.02 -0.1,0.03 -0.15,0.03l0 0zm-7.26 -0.63c3.56,-0.16 3.81,-0.18 7.09,-0.34 0.95,-0.4 1.56,-1.26 1.83,-2.3 0.23,-0.85 0.24,-1.81 0.05,-2.76 -0.19,-0.95 -0.58,-1.88 -1.16,-2.66 -0.87,-1.16 -2.16,-1.98 -3.84,-2l0 0c-0.03,0 -0.07,0 -0.1,-0.01 -0.27,-0.06 -0.44,-0.32 -0.4,-0.58 0.37,-2.01 -0.14,-3.81 -1.14,-5.18 -0.69,-0.94 -1.61,-1.68 -2.64,-2.15 -1.03,-0.48 -2.18,-0.68 -3.31,-0.54 -1.55,0.18 -3.08,0.99 -4.31,2.61 -0.06,0.09 -0.15,0.15 -0.26,0.18 -0.26,0.07 -0.54,-0.09 -0.62,-0.36 -0.43,-1.44 -1.42,-2.07 -2.52,-2.13 -0.55,-0.03 -1.12,0.07 -1.67,0.27 -0.56,0.21 -1.11,0.52 -1.58,0.91 -1.19,0.97 -1.94,2.43 -1.44,3.93 4.65,7.32 5.61,8.93 6.67,10.69 0.43,0.73 0.89,1.49 1.67,2.77l7.68 -0.35z"/>
  <path class="fil2" d="M304.85 157.18c-0.55,3.1 2.32,4.81 0.99,13.02 3.24,-0.14 7.37,-1.7 11.93,1.56 -5.38,1.15 -9.97,13.34 -22.69,6.23 -12.64,-7.17 -6,-17.09 -8.52,-22.78 6.89,1.32 6.83,6.73 8.42,9.13 3.82,-4.65 7.53,-4.91 9.87,-7.16z"/>
  <g>
   <path class="fil5" d="M305.34 157.29c-0.2,1.08 0.08,2.02 0.43,3.19 0.57,1.93 1.32,4.45 0.65,9.19 0.48,-0.04 0.98,-0.11 1.5,-0.17 2.92,-0.38 6.36,-0.82 10.12,1.86 0.23,0.17 0.29,0.47 0.14,0.69 -0.07,0.1 -0.17,0.16 -0.28,0.18l0 0c-1.54,0.33 -3.08,1.69 -4.79,3.21l0 0c-4.09,3.61 -9.14,8.07 -18.25,2.98l-0.02 -0.01c-8.89,-5.06 -8.53,-11.39 -8.23,-16.76 0.13,-2.38 0.26,-4.56 -0.5,-6.26 -0.11,-0.25 0,-0.53 0.25,-0.63 0.08,-0.04 0.18,-0.04 0.27,-0.03l0 0c5.47,1.05 6.78,4.52 7.8,7.24 0.21,0.55 0.4,1.07 0.61,1.51 2.26,-2.55 4.45,-3.68 6.34,-4.66 1.2,-0.62 2.28,-1.18 3.13,-2 0.19,-0.18 0.5,-0.17 0.69,0.03 0.12,0.13 0.16,0.29 0.14,0.44l0 0zm-0.51 3.42c-0.26,-0.87 -0.48,-1.63 -0.53,-2.43 -0.74,0.53 -1.55,0.95 -2.44,1.41 -1.93,1.01 -4.2,2.18 -6.5,4.97l0 0c-0.03,0.03 -0.07,0.07 -0.11,0.09 -0.22,0.14 -0.52,0.07 -0.68,-0.16 -0.42,-0.64 -0.72,-1.44 -1.06,-2.32 -0.87,-2.33 -1.98,-5.27 -6.2,-6.39 0.51,1.74 0.4,3.73 0.28,5.88 -0.29,5.08 -0.62,11.07 7.7,15.8l0.01 0.01c8.5,4.75 13.27,0.54 17.13,-2.87l0.01 -0.01c1.47,-1.3 2.81,-2.49 4.22,-3.09 -3.12,-1.84 -6.05,-1.46 -8.57,-1.13 -0.75,0.09 -1.48,0.19 -2.17,0.22 -0.05,0 -0.1,0 -0.15,-0.01 -0.27,-0.06 -0.45,-0.32 -0.41,-0.58 0.8,-4.94 0.04,-7.47 -0.53,-9.39zm-9.99 17.7c-0.23,-0.14 -0.32,-0.43 -0.2,-0.66l0.2 0.66z"/>
  </g>
  <path class="fil4" d="M298.1 197.06c-5.12,-1.5 -3.22,-0.95 -15.82,-4.71 -1.24,-5.49 -0.68,-3.63 -3.83,-16.69 -0.03,-5.06 9.8,-6.18 9.53,-0.36 6.99,-4.43 14.48,3.41 10.6,10 6.05,2.18 4.44,11.65 -0.48,11.76z"/>
  <path class="fil5" d="M297.95 197.56c-3.62,-1.07 -3.84,-1.14 -7.48,-2.22 -1.76,-0.53 -4.3,-1.29 -8.31,-2.49 -0.2,-0.06 -0.35,-0.23 -0.39,-0.42 -0.37,-1.63 -0.59,-2.67 -0.8,-3.65 -0.45,-2.1 -0.85,-3.99 -3.03,-13.03 -0.01,-0.04 -0.01,-0.09 -0.01,-0.14 0,-2.17 1.57,-3.68 3.5,-4.35 0.73,-0.26 1.51,-0.4 2.28,-0.4 0.78,-0.01 1.55,0.12 2.23,0.39 1.31,0.53 2.31,1.56 2.53,3.16 1.89,-0.97 3.79,-1.13 5.5,-0.71 1.41,0.34 2.69,1.08 3.71,2.07 1.02,1 1.79,2.26 2.19,3.64 0.5,1.77 0.4,3.75 -0.54,5.65 1.76,0.82 2.83,2.26 3.34,3.88 0.35,1.11 0.42,2.32 0.26,3.46 -0.16,1.14 -0.57,2.22 -1.17,3.09 -0.85,1.23 -2.09,2.06 -3.62,2.09 -0.07,0.01 -0.13,0 -0.19,-0.02zm-7.22 -3.22c3.89,1.16 4.16,1.24 7.41,2.19 1.14,-0.05 2.09,-0.7 2.75,-1.66 0.51,-0.75 0.86,-1.69 1,-2.68 0.14,-0.99 0.08,-2.03 -0.22,-2.99 -0.46,-1.47 -1.49,-2.76 -3.21,-3.39 -0.05,-0.02 -0.09,-0.04 -0.14,-0.06 -0.25,-0.16 -0.34,-0.48 -0.19,-0.73 1.06,-1.8 1.21,-3.69 0.73,-5.37 -0.34,-1.2 -1.01,-2.29 -1.89,-3.15 -0.88,-0.86 -1.98,-1.49 -3.2,-1.79 -1.68,-0.41 -3.6,-0.16 -5.48,1.03 -0.09,0.06 -0.21,0.09 -0.33,0.08 -0.29,-0.03 -0.52,-0.28 -0.5,-0.57 0.07,-1.6 -0.74,-2.58 -1.86,-3.03 -0.55,-0.22 -1.18,-0.32 -1.83,-0.32 -0.65,0.01 -1.33,0.13 -1.95,0.35 -1.56,0.54 -2.82,1.72 -2.84,3.37 2.14,8.92 2.55,10.85 3.01,12.99 0.19,0.86 0.38,1.75 0.73,3.33 3.83,1.15 6.29,1.88 8.01,2.4z"/>
  <path class="fil2" d="M293.63 180.36c-1.69,2.87 0.65,5.59 -3.66,13.26 3.38,1.02 8.19,0.95 11.71,5.81 -5.95,-0.79 -15.03,9.66 -25.56,-1.93 -10.42,-11.64 -0.04,-19.09 -0.59,-25.63 6.61,3.77 4.6,9.11 5.38,12.05 5.59,-3.23 9.5,-2.17 12.72,-3.56z"/>
  <path class="fil5" d="M294.08 180.64c-0.59,1 -0.63,2.03 -0.7,3.31 -0.1,2.12 -0.23,4.89 -2.62,9.35 0.5,0.13 1.04,0.24 1.6,0.36 3.14,0.68 6.83,1.47 9.73,5.47 0.18,0.24 0.13,0.57 -0.1,0.73 -0.11,0.07 -0.23,0.1 -0.36,0.08l0 0.01c-1.69,-0.23 -3.76,0.57 -6.07,1.46 -5.49,2.12 -12.28,4.74 -19.82,-3.57l-0.01 -0.01 0 0c-7.33,-8.19 -4.69,-14.34 -2.46,-19.56l0.01 -0.02c0.99,-2.31 1.89,-4.42 1.73,-6.37 -0.03,-0.28 0.19,-0.53 0.47,-0.54 0.12,0 0.23,0.03 0.33,0.1 5.21,2.99 5.31,6.88 5.38,9.93 0.02,0.63 0.03,1.21 0.09,1.73 3.24,-1.72 5.9,-2.07 8.19,-2.36 1.45,-0.19 2.76,-0.35 3.93,-0.86 0.26,-0.11 0.57,0.01 0.7,0.28 0.08,0.16 0.06,0.34 -0.02,0.48l0 0zm-1.74 3.21c0.05,-0.96 0.09,-1.79 0.32,-2.59 -0.94,0.25 -1.94,0.38 -3.01,0.52 -2.35,0.3 -5.1,0.66 -8.46,2.6l0 0c-0.05,0.02 -0.1,0.04 -0.15,0.05 -0.28,0.06 -0.56,-0.12 -0.64,-0.4 -0.21,-0.79 -0.23,-1.69 -0.25,-2.68 -0.07,-2.63 -0.15,-5.94 -4.09,-8.55 -0.1,1.89 -0.92,3.82 -1.81,5.9l-0.01 0.02c-2.12,4.94 -4.61,10.76 2.26,18.44 7.04,7.75 13.45,5.27 18.64,3.27 1.98,-0.76 3.79,-1.46 5.45,-1.56 -2.55,-2.93 -5.69,-3.6 -8.4,-4.18 -0.8,-0.18 -1.57,-0.34 -2.3,-0.56 -0.06,-0.01 -0.12,-0.03 -0.17,-0.06 -0.25,-0.16 -0.35,-0.48 -0.21,-0.72 2.59,-4.62 2.73,-7.4 2.83,-9.5z"/>
  <path class="fil4" d="M277.31 218.68c-5.51,-2.16 -3.47,-1.36 -17.02,-6.76 -0.82,-6.14 -0.4,-4.04 -2.55,-18.68 0.47,-5.54 11.46,-5.78 10.58,0.57 8.17,-4.15 15.67,5.21 10.71,12.04 6.47,2.99 3.73,13.21 -1.72,12.83z"/>
  <path class="fil5" d="M277.14 219.17c-3.65,-1.44 -3.9,-1.54 -8.09,-3.2 -1.9,-0.76 -4.63,-1.85 -8.93,-3.57 -0.2,-0.08 -0.33,-0.26 -0.35,-0.46 -0.26,-1.97 -0.39,-3.05 -0.52,-4.07 -0.28,-2.37 -0.54,-4.52 -2.02,-14.58 -0.01,-0.05 -0.01,-0.1 0,-0.15 0.21,-2.34 2.08,-3.82 4.26,-4.36 0.83,-0.21 1.71,-0.28 2.56,-0.2 0.85,0.07 1.68,0.28 2.4,0.65 1.4,0.71 2.38,1.95 2.43,3.74 2.23,-0.9 4.39,-0.88 6.26,-0.24 1.51,0.53 2.83,1.47 3.85,2.66 1.01,1.19 1.72,2.64 2.01,4.19 0.36,1.98 0.04,4.12 -1.21,6.09 1.89,1.07 2.94,2.75 3.34,4.58 0.27,1.24 0.23,2.55 -0.06,3.77 -0.29,1.22 -0.83,2.35 -1.58,3.24 -1.05,1.27 -2.5,2.06 -4.19,1.94 -0.06,0 -0.11,-0.02 -0.16,-0.04l0 0.01zm-7.74 -4.16c3.95,1.57 4.21,1.68 8,3.16 1.3,0.06 2.44,-0.58 3.28,-1.59 0.65,-0.78 1.13,-1.77 1.38,-2.85 0.26,-1.07 0.29,-2.22 0.05,-3.31 -0.37,-1.69 -1.4,-3.23 -3.28,-4.1l0 0c-0.03,-0.02 -0.06,-0.04 -0.1,-0.06 -0.23,-0.18 -0.29,-0.5 -0.12,-0.73 1.35,-1.86 1.72,-3.93 1.37,-5.81 -0.25,-1.36 -0.87,-2.64 -1.77,-3.68 -0.88,-1.05 -2.04,-1.87 -3.37,-2.33 -1.85,-0.64 -4.03,-0.57 -6.27,0.57l0 0c-0.1,0.04 -0.21,0.06 -0.33,0.04 -0.28,-0.05 -0.48,-0.32 -0.44,-0.6 0.25,-1.77 -0.56,-2.95 -1.78,-3.57 -0.59,-0.3 -1.29,-0.48 -2.01,-0.54 -0.73,-0.07 -1.5,0 -2.22,0.17 -1.8,0.45 -3.34,1.63 -3.53,3.48 1.48,10.05 1.74,12.18 2.02,14.53 0.13,1.04 0.26,2.12 0.48,3.77l8.64 3.45z"/>
  <path class="fil2" d="M274.05 199.93c-2.15,2.97 0.15,6.2 -5.38,14.16 3.62,1.46 8.95,1.87 12.36,7.55 -6.51,-1.46 -17.61,9.07 -28.08,-4.7 -10.35,-13.8 1.89,-20.92 1.94,-28.14 6.93,4.8 4.17,10.44 4.73,13.75 6.52,-2.98 10.73,-1.42 14.43,-2.62z"/>
  <path class="fil5" d="M274.46 200.27c-0.74,1.04 -0.9,2.16 -1.1,3.56 -0.33,2.32 -0.76,5.34 -3.89,10.02 0.57,0.2 1.19,0.4 1.82,0.59 3.39,1.05 7.39,2.29 10.18,6.95 0.15,0.25 0.07,0.56 -0.17,0.7 -0.11,0.06 -0.24,0.08 -0.36,0.05 -1.87,-0.42 -4.25,0.25 -6.9,1 -6.27,1.76 -14.02,3.94 -21.5,-5.89l0 -0.01 0 0c-7.26,-9.68 -3.74,-16.15 -0.74,-21.63 1.33,-2.44 2.55,-4.67 2.57,-6.84 0,-0.29 0.23,-0.51 0.52,-0.49 0.1,0 0.2,0.04 0.28,0.1l0 -0.01c5.47,3.8 5.19,8.06 4.96,11.41l0 0c-0.04,0.72 -0.09,1.4 -0.07,2 3.78,-1.59 6.78,-1.7 9.35,-1.79l0.04 0c1.62,-0.06 3.06,-0.12 4.41,-0.55 0.27,-0.09 0.57,0.06 0.67,0.33 0.07,0.18 0.04,0.37 -0.07,0.5zm-2.13 3.36c0.15,-1.08 0.28,-2.01 0.66,-2.89 -1.09,0.19 -2.23,0.24 -3.45,0.28l-0.04 0c-2.63,0.1 -5.72,0.21 -9.65,2l0 0c-0.04,0.02 -0.09,0.04 -0.15,0.04 -0.28,0.04 -0.55,-0.17 -0.59,-0.45 -0.15,-0.88 -0.09,-1.87 -0.01,-2.95l0 0 0 0c0.19,-2.92 0.44,-6.6 -3.76,-9.9 -0.28,2.1 -1.41,4.16 -2.63,6.39 -2.85,5.21 -6.2,11.36 0.65,20.5l-0.01 0c7.03,9.23 14.4,7.16 20.37,5.49 2.3,-0.65 4.41,-1.24 6.28,-1.15 -2.54,-3.57 -6,-4.64 -8.97,-5.56 -0.89,-0.28 -1.75,-0.54 -2.53,-0.86 -0.05,-0.01 -0.08,-0.03 -0.12,-0.06 -0.24,-0.17 -0.3,-0.5 -0.14,-0.73 3.33,-4.8 3.76,-7.84 4.09,-10.15z"/>
  <path class="fil5" d="M69.09 354.24l2.69 -1.26 3.9 8.33 -8.52 3.97c-1.79,-0.72 -3.3,-1.62 -4.54,-2.7 -1.23,-1.08 -2.18,-2.34 -2.85,-3.77 -0.9,-1.93 -1.24,-3.92 -1,-5.95 0.22,-2.03 1.07,-3.87 2.51,-5.53 1.46,-1.66 3.31,-3.01 5.57,-4.07 2.24,-1.04 4.51,-1.61 6.82,-1.71 2.31,-0.11 4.29,0.38 5.93,1.44 1.64,1.07 2.92,2.58 3.83,4.54 0.67,1.42 1,2.83 1,4.24 0,1.4 -0.33,2.65 -0.99,3.75 -0.66,1.1 -1.68,2.18 -3.06,3.25l-1.85 -2c1.03,-0.85 1.78,-1.64 2.24,-2.39 0.47,-0.75 0.71,-1.63 0.73,-2.63 0.02,-1 -0.2,-2 -0.66,-2.99 -0.55,-1.19 -1.25,-2.13 -2.08,-2.79 -0.82,-0.68 -1.71,-1.12 -2.65,-1.33 -0.93,-0.21 -1.88,-0.27 -2.85,-0.18 -1.65,0.16 -3.31,0.63 -4.97,1.4 -2.05,0.96 -3.62,2.06 -4.72,3.31 -1.1,1.24 -1.71,2.6 -1.84,4.07 -0.13,1.46 0.11,2.84 0.71,4.14 0.53,1.13 1.3,2.11 2.31,2.95 1,0.84 1.92,1.4 2.76,1.69l4.28 -2 -2.7 -5.78zm-2.89 16.21l22.18 -12.28 7.61 13.73 -2.62 1.45 -6.22 -11.22 -6.79 3.76 5.83 10.51 -2.6 1.44 -5.83 -10.51 -7.54 4.19 6.46 11.66 -2.62 1.45 -7.86 -14.18zm10.08 17.43l20.51 -14.9 2.55 3.5 -11.5 14.71c-1.08,1.36 -1.88,2.38 -2.43,3.04 0.89,-0.34 2.21,-0.82 3.97,-1.45l17.32 -6.16 2.28 3.13 -20.51 14.9 -1.63 -2.24 17.16 -12.47 -20.87 7.36 -1.53 -2.1 13.77 -17.76 -17.46 12.68 -1.63 -2.24zm13.61 18.69l24.23 -11.19 2.11 2.26 -12.48 23.79 -2.23 -2.39 3.89 -7.09 -6.2 -6.65 -7.24 3.5 -2.08 -2.23zm11.89 -2.52l5.02 5.39 3.58 -6.45c1.09,-1.96 2.02,-3.53 2.8,-4.71 -1.38,0.91 -2.82,1.72 -4.34,2.45l-7.06 3.32zm3.56 18.98l16.29 -19.42 2.21 1.85 -6.69 7.98 8.64 7.25 6.69 -7.97 2.21 1.85 -16.3 19.42 -2.2 -1.85 7.68 -9.15 -8.65 -7.26 -7.68 9.15 -2.2 -1.85zm23.91 18.69l11.9 -22.39 8.51 4.52c1.7,0.91 2.9,1.81 3.57,2.68 0.68,0.87 1.01,1.96 1,3.26 -0.01,1.31 -0.34,2.57 -1,3.8 -0.84,1.59 -1.99,2.69 -3.45,3.31 -1.46,0.62 -3.19,0.59 -5.19,-0.09 0.48,0.73 0.79,1.37 0.94,1.93 0.32,1.19 0.49,2.55 0.53,4.1l0.09 7.86 -3.19 -1.7 -0.06 -6c-0.03,-1.74 -0.09,-3.09 -0.2,-4.06 -0.09,-0.97 -0.26,-1.7 -0.49,-2.18 -0.22,-0.49 -0.5,-0.89 -0.84,-1.21 -0.25,-0.22 -0.7,-0.51 -1.36,-0.86l-2.94 -1.56 -5.28 9.93 -2.54 -1.34zm9.19 -11.16l5.45 2.9c1.16,0.62 2.14,0.96 2.95,1.03 0.8,0.06 1.54,-0.12 2.2,-0.56 0.67,-0.43 1.19,-1.01 1.58,-1.73 0.56,-1.06 0.7,-2.1 0.4,-3.14 -0.29,-1.03 -1.15,-1.92 -2.58,-2.68l-6.07 -3.22 -3.93 7.4zm10.8 21.06l9.9 -23.34 2.64 1.12 -9.9 23.34 -2.64 -1.12zm7.42 2.84l8.26 -23.97 7.74 2.67c1.37,0.47 2.38,0.9 3.05,1.3 0.94,0.55 1.66,1.21 2.15,2 0.49,0.78 0.77,1.74 0.85,2.87 0.07,1.14 -0.1,2.3 -0.51,3.49 -0.7,2.04 -1.85,3.58 -3.44,4.6 -1.6,1.03 -3.85,1.04 -6.75,0.05l-5.27 -1.82 -3.36 9.74 -2.72 -0.93zm7.05 -11.64l5.31 1.83c1.76,0.6 3.13,0.66 4.13,0.14 1,-0.51 1.74,-1.45 2.22,-2.83 0.34,-1.01 0.42,-1.94 0.24,-2.81 -0.19,-0.86 -0.6,-1.53 -1.23,-2 -0.42,-0.3 -1.23,-0.66 -2.47,-1.08l-5.25 -1.81 -2.95 8.56zm7.77 16.89l13.43 -23.06 3.03 0.64 3.43 26.64 -3.21 -0.68 -0.88 -8.03 -8.88 -1.89 -3.93 7.01 -2.99 -0.63zm8.3 -8.88l7.2 1.53 -0.76 -7.34c-0.23,-2.22 -0.37,-4.05 -0.41,-5.46 -0.61,1.53 -1.33,3.03 -2.15,4.5l-3.88 6.77zm14.1 12.99l2.21 -25.25 2.86 0.25 -0.9 10.37 11.24 0.99 0.91 -10.37 2.86 0.25 -2.21 25.25 -2.86 -0.25 1.04 -11.9 -11.24 -0.99 -1.05 11.91 -2.86 -0.26zm30.28 1.19l-3.97 -25.04 9.51 -1.5c1.91,-0.31 3.4,-0.31 4.47,-0.02 1.06,0.29 1.98,0.96 2.76,2 0.78,1.05 1.27,2.26 1.49,3.64 0.28,1.78 0.03,3.35 -0.77,4.72 -0.79,1.38 -2.19,2.39 -4.19,3.05 0.82,0.3 1.45,0.63 1.91,0.98 0.97,0.75 1.93,1.74 2.88,2.95l4.81 6.23 -3.57 0.56 -3.66 -4.76c-1.07,-1.37 -1.94,-2.41 -2.6,-3.12 -0.66,-0.71 -1.23,-1.2 -1.7,-1.45 -0.48,-0.25 -0.94,-0.4 -1.4,-0.46 -0.34,-0.03 -0.87,0.02 -1.6,0.13l-3.3 0.52 1.76 11.12 -2.83 0.45zm0.62 -14.43l6.1 -0.97c1.3,-0.21 2.29,-0.52 2.97,-0.95 0.68,-0.44 1.16,-1.02 1.43,-1.77 0.27,-0.75 0.34,-1.53 0.21,-2.34 -0.18,-1.18 -0.7,-2.1 -1.56,-2.74 -0.86,-0.65 -2.08,-0.85 -3.67,-0.59l-6.79 1.07 1.31 8.29zm20.94 10.95l-6.99 -24.36 15.09 -4.33 0.83 2.88 -12.34 3.53 2.14 7.46 11.55 -3.31 0.82 2.86 -11.55 3.31 2.38 8.3 12.82 -3.68 0.82 2.88 -15.57 4.46zm19.49 -5.88l-9.5 -23.5 7.6 -3.07c1.33,-0.54 2.39,-0.87 3.15,-1.01 1.07,-0.21 2.04,-0.18 2.93,0.09 0.89,0.27 1.73,0.81 2.53,1.62 0.8,0.81 1.44,1.79 1.91,2.96 0.8,1.99 0.95,3.91 0.42,5.73 -0.54,1.83 -2.23,3.32 -5.07,4.46l-5.17 2.09 3.86 9.56 -2.66 1.07zm-2.32 -13.4l5.21 -2.11c1.72,-0.69 2.79,-1.56 3.21,-2.6 0.42,-1.04 0.36,-2.24 -0.19,-3.59 -0.4,-0.99 -0.95,-1.75 -1.66,-2.27 -0.71,-0.53 -1.45,-0.77 -2.24,-0.71 -0.51,0.05 -1.36,0.31 -2.57,0.8l-5.15 2.08 3.39 8.4zm20.97 5.68l-12.29 -22.17 13.73 -7.61 1.45 2.61 -11.22 6.22 3.76 6.79 10.51 -5.82 1.44 2.6 -10.5 5.82 4.18 7.55 11.66 -6.47 1.45 2.62 -14.17 7.86zm17.64 -9.86l-15.25 -20.24 2.3 -1.73 6.26 8.31 9.02 -6.79 -6.27 -8.32 2.3 -1.73 15.25 20.25 -2.29 1.73 -7.19 -9.54 -9.02 6.79 7.19 9.54 -2.3 1.73zm23.66 -19.05l-18.54 -17.29 6.57 -7.04c1.32,-1.42 2.49,-2.34 3.51,-2.76 1.02,-0.43 2.15,-0.47 3.41,-0.13 1.26,0.35 2.39,1 3.41,1.95 1.32,1.23 2.09,2.62 2.3,4.2 0.23,1.57 -0.25,3.23 -1.43,4.98 0.83,-0.27 1.53,-0.4 2.11,-0.4 1.23,-0.01 2.59,0.18 4.09,0.55l7.63 1.94 -2.47 2.65 -5.82 -1.5c-1.68,-0.42 -3.01,-0.71 -3.97,-0.86 -0.96,-0.16 -1.7,-0.19 -2.23,-0.09 -0.53,0.09 -0.99,0.26 -1.39,0.49 -0.28,0.19 -0.67,0.55 -1.18,1.09l-2.27 2.44 8.23 7.68 -1.96 2.1zm-8.39 -11.76l4.21 -4.52c0.89,-0.96 1.48,-1.82 1.75,-2.58 0.27,-0.76 0.29,-1.51 0.04,-2.27 -0.25,-0.76 -0.67,-1.41 -1.27,-1.97 -0.88,-0.82 -1.85,-1.22 -2.93,-1.2 -1.07,0.02 -2.15,0.62 -3.25,1.8l-4.69 5.02 6.14 5.72zm23.19 -3.81l-15.61 -21.65 1.82 -2.5 25.73 7.7 -1.92 2.65 -7.7 -2.46 -5.34 7.35 4.81 6.44 -1.79 2.47zm-4.74 -11.19l4.33 -5.96 -7.01 -2.29c-2.13,-0.69 -3.85,-1.31 -5.16,-1.84 1.15,1.18 2.23,2.44 3.23,3.79l4.61 6.3zm17.94 -6.83l-22.17 -12.29 3.97 -7.16c0.7,-1.27 1.31,-2.19 1.82,-2.78 0.69,-0.83 1.47,-1.42 2.34,-1.77 0.85,-0.35 1.85,-0.46 2.98,-0.33 1.13,0.12 2.24,0.49 3.34,1.1 1.88,1.04 3.2,2.44 3.94,4.19 0.73,1.75 0.35,3.97 -1.13,6.66l-2.71 4.87 9.02 5 -1.4 2.51zm-10.23 -8.96l2.72 -4.91c0.9,-1.63 1.19,-2.97 0.86,-4.05 -0.33,-1.07 -1.13,-1.96 -2.41,-2.67 -0.93,-0.51 -1.84,-0.76 -2.72,-0.72 -0.89,0.04 -1.61,0.32 -2.19,0.86 -0.36,0.36 -0.86,1.1 -1.49,2.24l-2.7 4.86 7.93 4.39zm20.22 -9.27l-22.98 -10.71 1.22 -2.6 22.97 10.71 -1.21 2.6zm3.51 -7.15l-23.82 -8.67 0.98 -2.7 9.78 3.56 3.86 -10.6 -9.78 -3.57 0.99 -2.7 23.82 8.67 -0.99 2.7 -11.22 -4.08 -3.86 10.6 11.22 4.09 -0.98 2.7z"/>
  <path class="fil5" d="M68.97 353.99l2.69 -1.26 0.25 -0.12 0.12 0.26 3.9 8.32 0.12 0.26 -0.25 0.11 -8.52 3.98 -0.11 0.05 -0.11 -0.05c-0.91,-0.36 -1.75,-0.78 -2.51,-1.24 -0.78,-0.46 -1.48,-0.96 -2.11,-1.51l0 0c-0.63,-0.56 -1.19,-1.16 -1.67,-1.8 -0.49,-0.64 -0.91,-1.33 -1.25,-2.06 -0.46,-0.99 -0.78,-2 -0.95,-3.02 -0.17,-1.01 -0.2,-2.04 -0.08,-3.08 0.11,-1.04 0.39,-2.03 0.82,-2.98 0.43,-0.95 1.02,-1.85 1.77,-2.7 0.74,-0.85 1.58,-1.61 2.52,-2.3 0.95,-0.69 1.99,-1.31 3.13,-1.84 1.13,-0.53 2.28,-0.93 3.43,-1.22 1.16,-0.3 2.32,-0.47 3.5,-0.52 1.18,-0.05 2.28,0.04 3.29,0.29 1.02,0.25 1.96,0.65 2.81,1.2 0.84,0.55 1.59,1.21 2.24,1.99 0.66,0.78 1.22,1.66 1.69,2.66 0.33,0.73 0.59,1.46 0.76,2.19 0.17,0.72 0.25,1.44 0.25,2.17 0,0.72 -0.08,1.41 -0.25,2.06l0 0c-0.17,0.65 -0.43,1.26 -0.77,1.83l0 0c-0.34,0.57 -0.77,1.13 -1.3,1.69 -0.51,0.55 -1.13,1.09 -1.84,1.64l-0.19 0.15 -0.18 -0.19 -1.85 -2 -0.2 -0.21 0.23 -0.19c0.51,-0.41 0.94,-0.82 1.31,-1.2 0.36,-0.39 0.65,-0.76 0.88,-1.12l0 0c0.21,-0.35 0.38,-0.73 0.49,-1.15 0.12,-0.41 0.18,-0.86 0.19,-1.34 0.01,-0.47 -0.03,-0.95 -0.14,-1.43l0 0c-0.1,-0.48 -0.27,-0.96 -0.49,-1.44 -0.27,-0.58 -0.57,-1.09 -0.91,-1.54 -0.33,-0.44 -0.69,-0.83 -1.09,-1.15 -0.4,-0.32 -0.81,-0.59 -1.23,-0.8l0 0c-0.42,-0.21 -0.86,-0.37 -1.31,-0.47l0 0c-0.45,-0.1 -0.91,-0.17 -1.37,-0.2 -0.46,-0.03 -0.93,-0.02 -1.39,0.02 -0.81,0.08 -1.62,0.24 -2.44,0.47 -0.81,0.23 -1.63,0.53 -2.44,0.91 -1.02,0.48 -1.91,0.98 -2.68,1.52 -0.76,0.54 -1.41,1.11 -1.95,1.72 -0.53,0.6 -0.94,1.23 -1.24,1.88 -0.29,0.65 -0.47,1.33 -0.53,2.03l0 0c-0.06,0.71 -0.04,1.4 0.07,2.07 0.12,0.66 0.32,1.31 0.61,1.93l0 0c0.26,0.55 0.57,1.06 0.94,1.54 0.37,0.47 0.8,0.91 1.29,1.32l0.01 0c0.49,0.41 0.96,0.75 1.4,1.03 0.41,0.24 0.79,0.43 1.16,0.57l3.93 -1.83 -2.58 -5.54 -0.12 -0.25 0.25 -0.11zm2.68 -0.64l-2.19 1.02 2.58 5.53 0.11 0.26 -0.25 0.11 -4.28 2 -0.1 0.04 -0.1 -0.03c-0.44,-0.15 -0.9,-0.37 -1.37,-0.66 -0.48,-0.29 -0.97,-0.65 -1.48,-1.08l0 0c-0.52,-0.43 -0.98,-0.89 -1.37,-1.4 -0.4,-0.51 -0.74,-1.06 -1.01,-1.64l0 0c-0.31,-0.67 -0.53,-1.36 -0.65,-2.08 -0.12,-0.71 -0.15,-1.45 -0.08,-2.21l0 0c0.06,-0.76 0.26,-1.5 0.58,-2.2 0.31,-0.71 0.76,-1.38 1.32,-2.03 0.57,-0.64 1.25,-1.24 2.06,-1.8 0.8,-0.57 1.72,-1.09 2.75,-1.57 0.85,-0.39 1.69,-0.71 2.53,-0.95 0.84,-0.23 1.69,-0.39 2.53,-0.48l0.01 0c0.5,-0.04 0.99,-0.05 1.48,-0.02 0.48,0.03 0.97,0.1 1.45,0.21l0.01 0c0.49,0.11 0.96,0.28 1.42,0.51l0 0c0.46,0.23 0.91,0.52 1.34,0.87 0.43,0.35 0.83,0.77 1.19,1.25 0.36,0.48 0.68,1.03 0.96,1.64 0.24,0.51 0.42,1.03 0.53,1.55l0 0c0.12,0.52 0.17,1.04 0.16,1.56 -0.01,0.53 -0.08,1.02 -0.21,1.48 -0.13,0.46 -0.32,0.9 -0.56,1.3l0 0c-0.24,0.39 -0.56,0.79 -0.95,1.2 -0.32,0.34 -0.7,0.7 -1.13,1.06l1.48 1.6c0.59,-0.47 1.12,-0.94 1.57,-1.42 0.5,-0.53 0.9,-1.06 1.22,-1.59l0 0c0.32,-0.53 0.55,-1.09 0.71,-1.69l0 0c0.16,-0.61 0.24,-1.25 0.24,-1.92 0,-0.68 -0.08,-1.36 -0.24,-2.05 -0.16,-0.69 -0.4,-1.38 -0.73,-2.07 -0.44,-0.96 -0.98,-1.81 -1.6,-2.54 -0.62,-0.74 -1.33,-1.37 -2.13,-1.89 -0.79,-0.51 -1.67,-0.89 -2.63,-1.12 -0.96,-0.23 -2.01,-0.33 -3.14,-0.27 -1.13,0.05 -2.26,0.21 -3.38,0.49 -1.12,0.28 -2.23,0.68 -3.33,1.19 -1.12,0.52 -2.13,1.12 -3.04,1.78 -0.91,0.67 -1.72,1.41 -2.44,2.22 -0.7,0.81 -1.27,1.67 -1.67,2.57 -0.41,0.89 -0.67,1.83 -0.78,2.81l0 0.01c-0.11,0.98 -0.09,1.96 0.08,2.92 0.16,0.97 0.46,1.93 0.9,2.87 0.33,0.7 0.72,1.36 1.19,1.97 0.46,0.61 1,1.18 1.6,1.71l0 0c0.61,0.53 1.28,1.02 2.02,1.46 0.71,0.42 1.49,0.81 2.32,1.15l8.16 -3.8 -3.66 -7.83zm-5.58 16.86l22.17 -12.29 0.24 -0.13 0.14 0.24 7.61 13.73 0.13 0.25 -0.24 0.13 -2.61 1.45 -0.25 0.13 -0.13 -0.24 -6.09 -10.98 -6.3 3.5 5.69 10.26 0.13 0.25 -0.24 0.13 -2.6 1.44 -0.24 0.14 -0.14 -0.24 -5.69 -10.27 -7.06 3.91 6.33 11.42 0.14 0.25 -0.25 0.13 -2.61 1.45 -0.25 0.14 -0.13 -0.25 -7.86 -14.17 -0.13 -0.24 0.24 -0.14zm22.2 -11.67l-21.69 12.02 7.59 13.69 2.13 -1.18 -6.33 -11.42 -0.13 -0.24 0.24 -0.14 7.55 -4.18 0.24 -0.13 0.13 0.24 5.69 10.26 2.12 -1.17 -5.69 -10.27 -0.13 -0.24 0.24 -0.13 6.79 -3.76 0.24 -0.14 0.13 0.24 6.09 10.98 2.13 -1.18 -7.34 -13.25zm-12.15 29.12l20.51 -14.9 0.22 -0.17 0.17 0.23 2.54 3.5 0.12 0.17 -0.13 0.16 -11.5 14.71 0 0c-0.52,0.67 -0.99,1.26 -1.41,1.79l-0.37 0.46 0.78 -0.29 0 0c0.66,-0.23 1.4,-0.5 2.24,-0.8l17.32 -6.16 0.19 -0.07 0.13 0.17 2.27 3.13 0.16 0.22 -0.22 0.16 -20.51 14.9 -0.22 0.17 -0.17 -0.23 -1.63 -2.24 -0.16 -0.22 0.23 -0.17 15.62 -11.35 -19.08 6.73 -0.19 0.07 -0.13 -0.17 -1.52 -2.09 -0.12 -0.17 0.13 -0.17 12.57 -16.22 -15.88 11.54 -0.23 0.16 -0.16 -0.22 -1.63 -2.25 -0.16 -0.22 0.22 -0.16zm20.61 -14.29l-20.06 14.57 1.3 1.79 17.24 -12.51 1.57 -1.15 -1.19 1.54 -13.64 17.6 1.28 1.76 20.68 -7.3 1.8 -0.63 -1.54 1.12 -16.94 12.31 1.3 1.79 20.06 -14.57 -1.99 -2.74 -17.13 6.09c-0.85,0.31 -1.6,0.57 -2.23,0.81l0 0c-0.69,0.25 -1.27,0.47 -1.73,0.64l-0.99 0.38 0.68 -0.81c0.25,-0.32 0.59,-0.74 1.01,-1.26 0.39,-0.49 0.86,-1.09 1.41,-1.78l0 0 11.37 -14.54 -2.26 -3.11zm-6.96 32.94l24.23 -11.18 0.18 -0.09 0.14 0.15 2.11 2.26 0.13 0.15 -0.09 0.17 -12.47 23.79 -0.18 0.35 -0.27 -0.29 -2.24 -2.39 -0.13 -0.15 0.09 -0.18 3.8 -6.91 -5.92 -6.35 -7.06 3.41 -0.18 0.09 -0.14 -0.15 -2.08 -2.24 -0.27 -0.28 0.35 -0.16zm24.28 -10.59l-23.7 10.94 1.68 1.8 7.06 -3.4 0.18 -0.09 0.14 0.15 6.2 6.64 0.13 0.14 -0.09 0.18 -3.79 6.91 1.83 1.97 12.2 -23.27 -1.84 -1.97zm-11.81 8.42l4.5 4.83 3.4 -6.12c0.55,-0.99 1.06,-1.87 1.52,-2.65 0.21,-0.36 0.42,-0.7 0.62,-1.02 -0.36,0.22 -0.72,0.43 -1.08,0.63 -0.73,0.41 -1.48,0.8 -2.24,1.17l-0.01 0 -6.71 3.16zm4.36 5.48l-5.03 -5.38 -0.26 -0.28 0.35 -0.16 7.06 -3.32 0 0c0.75,-0.37 1.49,-0.75 2.21,-1.15 0.72,-0.41 1.42,-0.84 2.1,-1.28l1.12 -0.74 -0.74 1.12c-0.38,0.58 -0.8,1.26 -1.27,2.06 -0.47,0.79 -0.98,1.67 -1.51,2.63l-3.59 6.45 -0.18 0.33 -0.26 -0.28zm-1.47 13.23l16.29 -19.41 0.18 -0.22 0.21 0.18 2.21 1.85 0.21 0.18 -0.18 0.21 -6.51 7.77 8.22 6.89 6.51 -7.76 0.18 -0.21 0.21 0.18 2.21 1.84 0.21 0.18 -0.18 0.22 -16.29 19.41 -0.18 0.22 -0.21 -0.18 -2.21 -1.85 -0.21 -0.18 0.18 -0.21 7.5 -8.94 -8.22 -6.9 -7.5 8.94 -0.18 0.21 -0.21 -0.18 -2.21 -1.85 -0.21 -0.17 0.18 -0.22zm16.54 -18.85l-15.94 19 1.78 1.49 7.5 -8.94 0.18 -0.21 0.21 0.18 8.65 7.25 0.21 0.18 -0.18 0.21 -7.5 8.94 1.78 1.5 15.94 -19 -1.78 -1.49 -6.52 7.76 -0.17 0.21 -0.22 -0.17 -8.64 -7.26 -0.21 -0.18 0.17 -0.21 6.52 -7.76 -1.78 -1.5zm7.34 37.59l11.9 -22.39 0.13 -0.24 0.24 0.13 8.5 4.52c0.87,0.46 1.6,0.92 2.21,1.37 0.62,0.46 1.11,0.92 1.46,1.38 0.36,0.46 0.63,0.98 0.8,1.56 0.18,0.57 0.26,1.19 0.26,1.87l0 0c0,0.68 -0.09,1.35 -0.27,2 -0.17,0.65 -0.42,1.3 -0.76,1.93 -0.44,0.82 -0.95,1.52 -1.55,2.09 -0.6,0.57 -1.28,1.02 -2.04,1.35l0 0c-0.77,0.32 -1.6,0.48 -2.51,0.46 -0.68,-0.01 -1.41,-0.12 -2.17,-0.33 0.08,0.15 0.15,0.29 0.22,0.43l0 0c0.17,0.33 0.29,0.65 0.37,0.95l0 0c0.16,0.6 0.29,1.25 0.38,1.95 0.08,0.69 0.14,1.43 0.15,2.21l0 0 0.1 7.87 0.01 0.47 -0.42 -0.22 -3.19 -1.7 -0.14 -0.08 -0.01 -0.16 -0.06 -6.01c-0.01,-0.86 -0.03,-1.63 -0.07,-2.31 -0.03,-0.67 -0.07,-1.24 -0.12,-1.72l0 0c-0.05,-0.47 -0.11,-0.89 -0.19,-1.24 -0.08,-0.34 -0.17,-0.62 -0.28,-0.85l0 0c-0.11,-0.23 -0.22,-0.44 -0.35,-0.63 -0.13,-0.18 -0.27,-0.35 -0.42,-0.5 -0.12,-0.1 -0.28,-0.22 -0.5,-0.35 -0.21,-0.14 -0.48,-0.29 -0.81,-0.46l-2.69 -1.44 -5.16 9.69 -0.13 0.25 -0.24 -0.13 -2.54 -1.35 -0.24 -0.13 0.13 -0.24zm12.26 -21.88l-11.64 21.89 2.04 1.09 5.16 -9.69 0.13 -0.25 0.24 0.13 2.95 1.56c0.32,0.18 0.6,0.34 0.84,0.49 0.24,0.15 0.43,0.29 0.57,0.41l0.01 0.01c0.18,0.17 0.34,0.37 0.49,0.58 0.15,0.22 0.28,0.46 0.4,0.71l0 0c0.13,0.26 0.23,0.58 0.32,0.97 0.08,0.37 0.15,0.81 0.2,1.3l0 0c0.05,0.49 0.1,1.08 0.13,1.76 0.03,0.67 0.05,1.45 0.07,2.32l0 0 0.06 5.85 2.63 1.4 -0.09 -7.4c-0.02,-0.76 -0.07,-1.48 -0.15,-2.15 -0.09,-0.67 -0.21,-1.3 -0.37,-1.88l0 0c-0.07,-0.26 -0.18,-0.54 -0.33,-0.85l0 0c-0.15,-0.31 -0.34,-0.64 -0.57,-1l-0.43 -0.67 0.75 0.26c0.97,0.33 1.88,0.5 2.71,0.52 0.83,0.01 1.59,-0.13 2.28,-0.42l0 0c0.7,-0.3 1.32,-0.71 1.88,-1.24 0.55,-0.53 1.03,-1.18 1.44,-1.95 0.32,-0.6 0.56,-1.2 0.72,-1.81 0.16,-0.61 0.24,-1.23 0.25,-1.86 0,-0.62 -0.08,-1.19 -0.24,-1.71 -0.15,-0.51 -0.39,-0.97 -0.71,-1.38 -0.32,-0.42 -0.77,-0.84 -1.35,-1.27 -0.58,-0.44 -1.29,-0.88 -2.13,-1.33l-8.26 -4.39zm-2.46 10.74l5.21 2.77c0.57,0.3 1.09,0.54 1.57,0.7 0.47,0.16 0.89,0.26 1.27,0.29l0 0c0.37,0.03 0.73,0 1.06,-0.08 0.34,-0.08 0.66,-0.23 0.97,-0.43 0.31,-0.2 0.59,-0.44 0.84,-0.71 0.25,-0.27 0.46,-0.58 0.64,-0.92 0.27,-0.5 0.43,-1 0.5,-1.48 0.06,-0.49 0.02,-0.97 -0.12,-1.45l0 0c-0.13,-0.47 -0.4,-0.91 -0.8,-1.33 -0.4,-0.42 -0.95,-0.82 -1.64,-1.18l-5.82 -3.1 -3.68 6.92zm4.95 3.26l-5.45 -2.9 -0.25 -0.13 0.13 -0.25 3.94 -7.4 0.13 -0.25 0.24 0.13 6.07 3.23c0.74,0.39 1.33,0.82 1.78,1.29 0.47,0.48 0.78,1 0.94,1.56l0 0c0.15,0.55 0.2,1.11 0.13,1.67 -0.08,0.55 -0.26,1.11 -0.56,1.67 -0.2,0.38 -0.44,0.73 -0.72,1.03 -0.28,0.31 -0.59,0.58 -0.95,0.81 -0.36,0.23 -0.73,0.4 -1.13,0.5 -0.4,0.1 -0.81,0.13 -1.25,0.09 -0.42,-0.03 -0.89,-0.14 -1.4,-0.32 -0.51,-0.17 -1.06,-0.42 -1.65,-0.73zm5.22 17.8l9.91 -23.34 0.1 -0.25 0.26 0.11 2.64 1.12 0.26 0.11 -0.11 0.25 -9.9 23.34 -0.11 0.25 -0.26 -0.11 -2.64 -1.12 -0.26 -0.11 0.11 -0.25zm10.31 -22.86l-9.69 22.82 2.13 0.91 9.69 -22.83 -2.13 -0.9zm-2.89 25.72l8.25 -23.97 0.1 -0.26 0.26 0.09 7.74 2.67c0.69,0.23 1.28,0.46 1.8,0.68 0.52,0.22 0.95,0.44 1.3,0.64l0 0c0.49,0.29 0.92,0.6 1.29,0.94 0.37,0.35 0.69,0.73 0.95,1.15l0 0c0.26,0.41 0.47,0.87 0.61,1.37 0.15,0.51 0.25,1.05 0.29,1.64l0 0c0.03,0.58 0.01,1.18 -0.08,1.78 -0.08,0.6 -0.23,1.2 -0.44,1.81 -0.36,1.04 -0.84,1.96 -1.43,2.76 -0.6,0.79 -1.31,1.46 -2.13,1.99l0 0c-0.85,0.54 -1.86,0.81 -3.04,0.82 -1.16,0.01 -2.48,-0.24 -3.96,-0.75l-5 -1.73 -3.27 9.49 -0.09 0.26 -0.26 -0.09 -2.71 -0.94 -0.27 -0.09 0.09 -0.26zm8.69 -23.52l-8.07 23.44 2.19 0.75 3.26 -9.48 0.09 -0.26 0.27 0.09 5.26 1.81c1.43,0.49 2.68,0.73 3.78,0.73 1.07,-0.01 1.98,-0.26 2.74,-0.74l0 0c0.77,-0.5 1.43,-1.11 1.98,-1.86 0.56,-0.74 1.01,-1.61 1.35,-2.6 0.2,-0.58 0.34,-1.15 0.42,-1.71 0.08,-0.56 0.11,-1.12 0.07,-1.67 -0.04,-0.54 -0.12,-1.05 -0.26,-1.51 -0.13,-0.45 -0.31,-0.87 -0.54,-1.23l0 -0.01c-0.24,-0.37 -0.53,-0.71 -0.87,-1.03 -0.34,-0.32 -0.74,-0.61 -1.19,-0.87l0 0c-0.33,-0.19 -0.74,-0.4 -1.24,-0.61 -0.5,-0.21 -1.08,-0.44 -1.76,-0.67l-7.48 -2.57zm-1.03 11.8l5.05 1.74c0.85,0.29 1.61,0.45 2.27,0.47 0.64,0.03 1.19,-0.08 1.65,-0.31 0.46,-0.24 0.86,-0.58 1.21,-1.02 0.35,-0.45 0.64,-1 0.86,-1.67 0.17,-0.48 0.27,-0.94 0.31,-1.38 0.04,-0.44 0.01,-0.86 -0.08,-1.27 -0.08,-0.4 -0.22,-0.75 -0.41,-1.06l0 0c-0.18,-0.3 -0.42,-0.56 -0.71,-0.78 -0.19,-0.13 -0.48,-0.29 -0.88,-0.46 -0.4,-0.18 -0.9,-0.37 -1.51,-0.58l-4.99 -1.72 -2.77 8.04zm4.87 2.26l-5.31 -1.83 -0.26 -0.09 0.09 -0.26 2.95 -8.56 0.09 -0.27 0.26 0.09 5.25 1.81c0.62,0.21 1.14,0.41 1.56,0.6 0.43,0.19 0.75,0.36 0.98,0.52l0 0.01c0.35,0.25 0.63,0.57 0.85,0.93l0 0c0.22,0.36 0.39,0.77 0.49,1.23 0.1,0.46 0.13,0.94 0.08,1.43 -0.04,0.49 -0.15,1 -0.33,1.52 -0.25,0.72 -0.57,1.33 -0.95,1.83 -0.4,0.51 -0.86,0.9 -1.4,1.17 -0.54,0.28 -1.18,0.4 -1.92,0.38 -0.72,-0.03 -1.53,-0.2 -2.43,-0.51zm2.31 14.66l13.44 -23.06 0.1 -0.18 0.19 0.05 3.03 0.64 0.19 0.04 0.03 0.2 3.42 26.64 0.05 0.39 -0.38 -0.08 -3.21 -0.69 -0.19 -0.04 -0.02 -0.2 -0.86 -7.83 -8.49 -1.81 -3.83 6.84 -0.1 0.18 -0.2 -0.05 -2.98 -0.63 -0.38 -0.08 0.19 -0.33zm13.81 -22.61l-13.13 22.56 2.41 0.51 3.83 -6.84 0.1 -0.18 0.2 0.05 8.88 1.88 0.19 0.05 0.03 0.2 0.86 7.83 2.62 0.56 -3.35 -26.06 -2.64 -0.56zm-4.84 13.67l6.46 1.38 -0.72 -6.96c-0.12,-1.13 -0.21,-2.14 -0.28,-3.04 -0.03,-0.42 -0.06,-0.82 -0.08,-1.2 -0.17,0.38 -0.34,0.76 -0.53,1.14 -0.36,0.76 -0.75,1.5 -1.16,2.24l0 0 -3.69 6.44zm6.72 2l-7.21 -1.53 -0.37 -0.08 0.19 -0.33 3.87 -6.77 0.01 0c0.41,-0.73 0.79,-1.46 1.15,-2.21 0.35,-0.74 0.68,-1.49 0.98,-2.25l0.5 -1.25 0.04 1.34c0.02,0.69 0.06,1.5 0.13,2.42 0.07,0.92 0.16,1.93 0.28,3.02l0.76 7.34 0.04 0.38 -0.37 -0.08zm6.67 11.17l2.21 -25.25 0.03 -0.28 0.27 0.02 2.87 0.26 0.28 0.02 -0.03 0.28 -0.88 10.09 10.69 0.94 0.88 -10.1 0.03 -0.27 0.27 0.02 2.87 0.25 0.28 0.02 -0.03 0.28 -2.21 25.25 -0.02 0.28 -0.28 -0.02 -2.87 -0.25 -0.27 -0.03 0.02 -0.28 1.02 -11.62 -10.69 -0.93 -1.02 11.62 -0.02 0.28 -0.28 -0.03 -2.87 -0.25 -0.27 -0.02 0.02 -0.28zm2.74 -24.93l-2.16 24.7 2.31 0.2 1.02 -11.62 0.02 -0.28 0.28 0.03 11.24 0.98 0.28 0.03 -0.02 0.27 -1.02 11.63 2.31 0.2 2.16 -24.7 -2.31 -0.2 -0.88 10.09 -0.03 0.28 -0.27 -0.03 -11.25 -0.98 -0.27 -0.02 0.02 -0.28 0.88 -10.09 -2.31 -0.21zm27.54 26.18l-3.96 -25.03 -0.04 -0.28 0.27 -0.04 9.51 -1.51c0.97,-0.15 1.83,-0.23 2.59,-0.23 0.77,0 1.43,0.07 1.99,0.23 0.57,0.15 1.09,0.4 1.58,0.76 0.48,0.35 0.93,0.79 1.34,1.34l0 0c0.4,0.54 0.72,1.13 0.98,1.75 0.26,0.63 0.44,1.3 0.55,2.01 0.15,0.91 0.16,1.78 0.02,2.6 -0.13,0.82 -0.4,1.58 -0.82,2.3l0 0c-0.41,0.72 -0.99,1.35 -1.72,1.88 -0.55,0.4 -1.2,0.75 -1.94,1.05 0.16,0.06 0.31,0.13 0.44,0.2l0.01 0c0.32,0.17 0.61,0.35 0.86,0.54l0 0c0.49,0.38 0.98,0.83 1.47,1.33 0.49,0.5 0.98,1.06 1.46,1.67l0 0 4.81 6.23 0.29 0.37 -0.46 0.07 -3.58 0.57 -0.16 0.02 -0.1 -0.13 -3.66 -4.76c-0.53,-0.69 -1.02,-1.29 -1.44,-1.8 -0.43,-0.51 -0.81,-0.95 -1.14,-1.3l0 0c-0.32,-0.35 -0.62,-0.64 -0.9,-0.88 -0.27,-0.22 -0.51,-0.39 -0.73,-0.51l0 0c-0.23,-0.12 -0.45,-0.22 -0.67,-0.29l0 0c-0.21,-0.07 -0.42,-0.12 -0.62,-0.15l0 0.01c-0.16,-0.02 -0.36,-0.01 -0.62,0.01 -0.27,0.02 -0.57,0.06 -0.92,0.12l-3.02 0.47 1.72 10.85 0.04 0.27 -0.27 0.04 -2.84 0.45 -0.27 0.05 -0.05 -0.28zm-3.37 -24.85l3.88 24.49 2.29 -0.36 -1.72 -10.84 -0.04 -0.28 0.27 -0.04 3.29 -0.52c0.38,-0.06 0.7,-0.1 0.96,-0.12 0.29,-0.03 0.52,-0.03 0.71,-0.02l0.01 0c0.25,0.04 0.5,0.09 0.75,0.17l0 0.01c0.24,0.08 0.49,0.19 0.74,0.32l0.01 0c0.25,0.13 0.53,0.33 0.83,0.58 0.29,0.25 0.6,0.55 0.94,0.92l0 0c0.33,0.35 0.72,0.8 1.16,1.32 0.44,0.53 0.93,1.14 1.46,1.82l0 0 3.56 4.63 2.95 -0.46 -4.53 -5.86 0 0c-0.47,-0.6 -0.94,-1.14 -1.41,-1.62 -0.47,-0.48 -0.95,-0.91 -1.42,-1.28l0 0c-0.21,-0.17 -0.47,-0.33 -0.78,-0.48l0 0c-0.3,-0.16 -0.66,-0.31 -1.06,-0.46l-0.75 -0.27 0.76 -0.25c0.97,-0.32 1.8,-0.73 2.48,-1.22 0.67,-0.49 1.19,-1.05 1.56,-1.71l0 0c0.38,-0.65 0.64,-1.36 0.76,-2.11 0.12,-0.76 0.11,-1.57 -0.02,-2.43 -0.11,-0.67 -0.28,-1.29 -0.52,-1.88 -0.24,-0.58 -0.55,-1.13 -0.92,-1.63l0 0c-0.37,-0.5 -0.78,-0.91 -1.21,-1.22 -0.44,-0.32 -0.91,-0.54 -1.4,-0.68 -0.51,-0.14 -1.13,-0.21 -1.85,-0.21 -0.73,0.01 -1.57,0.08 -2.5,0.23l-9.24 1.46zm4.5 10.06l5.83 -0.92c0.63,-0.1 1.19,-0.23 1.67,-0.39 0.47,-0.15 0.87,-0.33 1.19,-0.53l0 0c0.32,-0.2 0.59,-0.43 0.8,-0.7 0.22,-0.27 0.39,-0.58 0.52,-0.93 0.13,-0.35 0.21,-0.71 0.24,-1.07 0.03,-0.37 0.02,-0.74 -0.04,-1.13 -0.09,-0.55 -0.25,-1.05 -0.5,-1.47 -0.24,-0.43 -0.56,-0.79 -0.96,-1.09l0 0c-0.39,-0.3 -0.87,-0.49 -1.44,-0.58 -0.58,-0.09 -1.25,-0.08 -2.02,0.04l-6.52 1.03 1.23 7.74zm5.92 -0.38l-6.11 0.97 -0.27 0.04 -0.04 -0.27 -1.32 -8.28 -0.04 -0.28 0.27 -0.04 6.79 -1.08c0.83,-0.13 1.56,-0.14 2.2,-0.04 0.66,0.11 1.22,0.33 1.68,0.69l0 0c0.46,0.34 0.84,0.76 1.11,1.25 0.28,0.49 0.47,1.04 0.57,1.67 0.06,0.43 0.08,0.85 0.04,1.26 -0.04,0.41 -0.13,0.82 -0.27,1.21 -0.15,0.4 -0.35,0.77 -0.6,1.08 -0.26,0.32 -0.57,0.6 -0.94,0.83l0 0c-0.36,0.23 -0.8,0.42 -1.32,0.59 -0.51,0.16 -1.09,0.3 -1.75,0.4zm14.52 11.73l-6.99 -24.37 -0.07 -0.26 0.26 -0.08 15.1 -4.33 0.26 -0.07 0.08 0.26 0.82 2.88 0.08 0.27 -0.27 0.07 -12.06 3.46 1.98 6.93 11.29 -3.24 0.26 -0.07 0.08 0.26 0.82 2.86 0.08 0.27 -0.27 0.08 -11.28 3.23 2.22 7.76 12.55 -3.6 0.27 -0.07 0.08 0.26 0.82 2.88 0.08 0.27 -0.27 0.07 -15.58 4.47 -0.26 0.08 -0.08 -0.27zm-6.38 -24.25l6.84 23.83 15.04 -4.31 -0.67 -2.35 -12.55 3.6 -0.27 0.08 -0.08 -0.27 -2.37 -8.29 -0.08 -0.27 0.27 -0.07 11.28 -3.24 -0.67 -2.33 -11.28 3.24 -0.27 0.08 -0.07 -0.27 -2.14 -7.46 -0.08 -0.27 0.27 -0.08 12.06 -3.45 -0.67 -2.35 -14.56 4.18zm25.88 18.4l-9.5 -23.51 -0.1 -0.25 0.26 -0.11 7.59 -3.07c0.67,-0.27 1.27,-0.49 1.81,-0.66 0.53,-0.17 1,-0.29 1.4,-0.36l0 0c0.55,-0.11 1.08,-0.16 1.59,-0.14 0.51,0.02 1.01,0.1 1.47,0.24l0 0c0.47,0.14 0.92,0.35 1.36,0.63 0.44,0.28 0.87,0.64 1.29,1.05 0.41,0.42 0.78,0.89 1.11,1.39 0.33,0.51 0.61,1.07 0.85,1.66 0.42,1.03 0.66,2.04 0.73,3.02 0.08,0.99 -0.02,1.96 -0.3,2.9l0 0c-0.28,0.97 -0.86,1.84 -1.75,2.62 -0.87,0.76 -2.03,1.44 -3.48,2.02l-4.91 1.99 3.76 9.29 0.1 0.26 -0.26 0.1 -2.66 1.08 -0.26 0.1 -0.1 -0.25zm-8.88 -23.46l9.29 22.99 2.15 -0.87 -3.76 -9.29 -0.1 -0.26 0.26 -0.1 5.16 -2.09c1.4,-0.56 2.5,-1.21 3.32,-1.93 0.81,-0.71 1.34,-1.49 1.59,-2.35l0 0c0.25,-0.88 0.35,-1.78 0.28,-2.71 -0.07,-0.93 -0.3,-1.88 -0.69,-2.85 -0.23,-0.57 -0.5,-1.09 -0.81,-1.57 -0.3,-0.47 -0.65,-0.91 -1.04,-1.3 -0.38,-0.39 -0.78,-0.71 -1.18,-0.97 -0.4,-0.25 -0.81,-0.45 -1.23,-0.57l0 0c-0.42,-0.13 -0.86,-0.2 -1.33,-0.22 -0.46,-0.01 -0.95,0.03 -1.47,0.13l0 0c-0.37,0.07 -0.82,0.18 -1.33,0.35 -0.52,0.17 -1.11,0.38 -1.77,0.65l-7.34 2.96zm6.97 9.59l4.96 -2c0.83,-0.34 1.5,-0.72 2.02,-1.13l0 0c0.5,-0.41 0.84,-0.85 1.03,-1.32 0.2,-0.48 0.28,-1.01 0.25,-1.56 -0.03,-0.57 -0.18,-1.18 -0.44,-1.83 -0.19,-0.47 -0.42,-0.89 -0.68,-1.25 -0.26,-0.35 -0.55,-0.66 -0.88,-0.9 -0.33,-0.25 -0.67,-0.42 -1.01,-0.53 -0.34,-0.11 -0.69,-0.15 -1.05,-0.12l0 0c-0.24,0.02 -0.56,0.09 -0.97,0.22 -0.42,0.13 -0.92,0.31 -1.52,0.55l-4.89 1.98 3.18 7.89zm5.16 -1.49l-5.21 2.11 -0.25 0.1 -0.11 -0.26 -3.39 -8.4 -0.11 -0.26 0.26 -0.1 5.15 -2.08c0.61,-0.25 1.13,-0.44 1.57,-0.57 0.45,-0.14 0.81,-0.22 1.08,-0.24l0.01 -0.01c0.43,-0.03 0.84,0.02 1.25,0.15 0.4,0.12 0.79,0.33 1.17,0.61 0.38,0.28 0.72,0.63 1.01,1.03 0.29,0.39 0.54,0.85 0.75,1.36 0.28,0.71 0.44,1.38 0.47,2.01 0.04,0.64 -0.06,1.24 -0.28,1.79 -0.23,0.57 -0.63,1.08 -1.2,1.55l0 0c-0.56,0.45 -1.28,0.85 -2.17,1.21zm15.41 7.66l-12.28 -22.17 -0.14 -0.24 0.24 -0.13 13.74 -7.61 0.24 -0.14 0.13 0.24 1.45 2.62 0.14 0.24 -0.25 0.14 -10.97 6.08 3.49 6.31 10.27 -5.7 0.24 -0.13 0.13 0.24 1.45 2.6 0.13 0.25 -0.24 0.13 -10.27 5.69 3.92 7.06 11.42 -6.33 0.24 -0.13 0.13 0.24 1.45 2.62 0.14 0.24 -0.24 0.13 -14.18 7.86 -0.24 0.14 -0.14 -0.25zm-11.67 -22.19l12.03 21.68 13.68 -7.59 -1.18 -2.13 -11.42 6.33 -0.24 0.14 -0.13 -0.25 -4.19 -7.54 -0.13 -0.25 0.24 -0.13 10.27 -5.69 -1.18 -2.12 -10.26 5.69 -0.24 0.14 -0.14 -0.24 -3.76 -6.79 -0.14 -0.24 0.25 -0.14 10.97 -6.08 -1.18 -2.14 -13.25 7.35zm29.34 12.37l-15.25 -20.25 -0.17 -0.22 0.22 -0.16 2.3 -1.74 0.22 -0.16 0.17 0.22 6.1 8.09 8.57 -6.46 -6.1 -8.09 -0.17 -0.22 0.22 -0.17 2.3 -1.73 0.22 -0.17 0.17 0.22 15.26 20.25 0.16 0.22 -0.22 0.17 -2.3 1.73 -0.22 0.17 -0.17 -0.22 -7.02 -9.32 -8.57 6.45 7.02 9.32 0.17 0.22 -0.22 0.17 -2.3 1.73 -0.22 0.17 -0.17 -0.22zm-14.64 -20.36l14.92 19.8 1.85 -1.39 -7.02 -9.32 -0.16 -0.22 0.22 -0.17 9.01 -6.79 0.22 -0.17 0.17 0.22 7.02 9.32 1.86 -1.4 -14.93 -19.8 -1.85 1.4 6.1 8.09 0.17 0.22 -0.23 0.17 -9.01 6.79 -0.22 0.17 -0.17 -0.22 -6.1 -8.1 -1.85 1.4zm38.33 1.34l-18.54 -17.29 -0.2 -0.19 0.19 -0.2 6.57 -7.04c0.67,-0.72 1.3,-1.31 1.89,-1.78 0.61,-0.48 1.18,-0.83 1.71,-1.05 0.54,-0.22 1.11,-0.35 1.72,-0.37 0.59,-0.02 1.22,0.06 1.87,0.23l0 0c0.66,0.19 1.28,0.45 1.86,0.78 0.59,0.34 1.14,0.75 1.67,1.24 0.68,0.63 1.22,1.31 1.62,2.04 0.4,0.72 0.65,1.5 0.77,2.32 0.12,0.82 0.05,1.67 -0.2,2.54 -0.19,0.65 -0.48,1.33 -0.89,2.01 0.17,-0.04 0.33,-0.07 0.48,-0.1 0.37,-0.07 0.7,-0.11 1.01,-0.11l0 0c0.63,0 1.29,0.05 1.98,0.14 0.69,0.09 1.42,0.23 2.18,0.42l0 0 7.62 1.94 0.46 0.12 -0.32 0.34 -2.47 2.64 -0.11 0.12 -0.16 -0.04 -5.82 -1.49 0 0c-0.83,-0.21 -1.58,-0.39 -2.24,-0.53 -0.66,-0.15 -1.22,-0.25 -1.7,-0.33l0 0c-0.47,-0.07 -0.89,-0.12 -1.25,-0.13 -0.35,-0.02 -0.65,0 -0.89,0.04l0 0c-0.25,0.05 -0.48,0.11 -0.7,0.18 -0.21,0.08 -0.41,0.17 -0.6,0.28 -0.12,0.09 -0.28,0.22 -0.46,0.38 -0.19,0.18 -0.41,0.4 -0.66,0.66l-2.08 2.24 8.03 7.49 0.2 0.18 -0.19 0.21 -1.95 2.1 -0.19 0.2 -0.21 -0.19zm-17.95 -17.5l18.13 16.91 1.58 -1.7 -8.03 -7.49 -0.2 -0.18 0.19 -0.21 2.27 -2.43c0.25,-0.27 0.48,-0.5 0.68,-0.69 0.21,-0.2 0.4,-0.35 0.55,-0.45l0.01 -0.01c0.22,-0.12 0.45,-0.23 0.69,-0.32 0.25,-0.09 0.51,-0.16 0.79,-0.21l0 0.01c0.29,-0.06 0.62,-0.07 1.01,-0.06 0.39,0.02 0.82,0.07 1.32,0.14l0 0c0.48,0.08 1.06,0.19 1.73,0.33 0.66,0.15 1.41,0.33 2.26,0.54l0 0 5.66 1.46 2.03 -2.19 -7.16 -1.82 0 0c-0.74,-0.18 -1.45,-0.32 -2.12,-0.41 -0.67,-0.09 -1.31,-0.14 -1.91,-0.14l0 0c-0.27,0 -0.57,0.04 -0.9,0.1 -0.35,0.07 -0.72,0.17 -1.12,0.3l-0.76 0.24 0.44 -0.66c0.57,-0.85 0.98,-1.68 1.21,-2.49 0.22,-0.79 0.28,-1.56 0.18,-2.31 -0.11,-0.75 -0.34,-1.46 -0.71,-2.13 -0.37,-0.67 -0.87,-1.3 -1.51,-1.9 -0.49,-0.45 -1.01,-0.84 -1.56,-1.16 -0.55,-0.31 -1.13,-0.55 -1.73,-0.72l0 0c-0.6,-0.16 -1.18,-0.24 -1.71,-0.22 -0.54,0.02 -1.04,0.13 -1.52,0.33 -0.49,0.21 -1.02,0.53 -1.58,0.98 -0.58,0.45 -1.19,1.02 -1.84,1.72l-6.37 6.84zm9.73 5.15l4.03 -4.32c0.44,-0.47 0.8,-0.91 1.08,-1.33 0.28,-0.41 0.48,-0.79 0.61,-1.15l0 0c0.13,-0.35 0.19,-0.7 0.2,-1.05 0,-0.35 -0.05,-0.69 -0.17,-1.04 -0.11,-0.36 -0.27,-0.69 -0.47,-1 -0.2,-0.31 -0.44,-0.59 -0.72,-0.86 -0.41,-0.38 -0.85,-0.67 -1.3,-0.86 -0.45,-0.18 -0.93,-0.27 -1.43,-0.26l0 0c-0.49,0 -0.99,0.15 -1.49,0.42 -0.52,0.29 -1.04,0.72 -1.57,1.28l-4.5 4.83 5.73 5.34zm4.43 -3.94l-4.21 4.52 -0.19 0.2 -0.2 -0.19 -6.14 -5.71 -0.2 -0.19 0.19 -0.21 4.69 -5.02c0.57,-0.61 1.14,-1.08 1.7,-1.39 0.59,-0.32 1.17,-0.49 1.75,-0.5 0.58,-0.01 1.13,0.09 1.65,0.31 0.52,0.21 1.01,0.54 1.47,0.97 0.32,0.29 0.59,0.61 0.81,0.96 0.22,0.35 0.4,0.72 0.53,1.12 0.13,0.41 0.2,0.82 0.19,1.23 0,0.41 -0.08,0.82 -0.23,1.23l0 0c-0.14,0.4 -0.37,0.82 -0.67,1.27 -0.3,0.45 -0.68,0.91 -1.14,1.4zm18.55 0.68l-15.6 -21.65 -0.12 -0.16 0.12 -0.16 1.82 -2.51 0.11 -0.16 0.19 0.06 25.73 7.71 0.38 0.11 -0.23 0.32 -1.93 2.65 -0.11 0.16 -0.2 -0.06 -7.51 -2.4 -5.09 7.02 4.68 6.27 0.13 0.17 -0.12 0.16 -1.8 2.47 -0.22 0.31 -0.23 -0.31zm-15.04 -21.81l15.27 21.18 1.45 -2 -4.69 -6.28 -0.12 -0.16 0.11 -0.16 5.34 -7.35 0.12 -0.16 0.19 0.06 7.51 2.4 1.58 -2.17 -25.17 -7.54 -1.59 2.18zm10.53 9.99l3.88 -5.34 -6.65 -2.17c-1.07,-0.35 -2.04,-0.68 -2.89,-0.99 -0.4,-0.14 -0.77,-0.28 -1.13,-0.41 0.28,0.31 0.56,0.62 0.83,0.94 0.55,0.64 1.07,1.3 1.57,1.98l0 0 4.39 5.99zm4.55 -5.33l-4.33 5.96 -0.22 0.31 -0.23 -0.3 -4.61 -6.3 0 0c-0.5,-0.68 -1.01,-1.33 -1.54,-1.95 -0.53,-0.62 -1.08,-1.23 -1.66,-1.82l-0.94 -0.96 1.24 0.51c0.64,0.26 1.4,0.55 2.26,0.86 0.87,0.31 1.83,0.63 2.88,0.98l7.01 2.29 0.37 0.12 -0.23 0.3zm13.26 -0.79l-22.17 -12.29 -0.24 -0.13 0.13 -0.24 3.97 -7.17c0.36,-0.64 0.68,-1.19 0.99,-1.65 0.3,-0.47 0.59,-0.86 0.85,-1.16l0 0c0.36,-0.43 0.75,-0.81 1.16,-1.11 0.41,-0.32 0.84,-0.56 1.29,-0.75 0.45,-0.18 0.94,-0.3 1.46,-0.36 0.52,-0.06 1.07,-0.05 1.66,0.01l0 0c0.58,0.06 1.16,0.19 1.74,0.38 0.57,0.19 1.14,0.44 1.7,0.75 0.97,0.54 1.8,1.17 2.47,1.89 0.68,0.72 1.21,1.54 1.59,2.44l0 0c0.39,0.93 0.48,1.97 0.29,3.14 -0.2,1.14 -0.68,2.39 -1.43,3.76l-2.57 4.63 8.77 4.87 0.24 0.13 -0.13 0.24 -1.39 2.51 -0.14 0.25 -0.24 -0.14zm-21.66 -12.64l21.69 12.02 1.12 -2.02 -8.77 -4.87 -0.24 -0.13 0.13 -0.24 2.7 -4.88c0.73,-1.31 1.18,-2.51 1.37,-3.58 0.18,-1.06 0.1,-2.01 -0.25,-2.83l0 0c-0.35,-0.85 -0.85,-1.6 -1.48,-2.28 -0.64,-0.68 -1.42,-1.27 -2.33,-1.78 -0.54,-0.3 -1.07,-0.53 -1.62,-0.71 -0.54,-0.18 -1.08,-0.3 -1.62,-0.36 -0.55,-0.06 -1.06,-0.06 -1.54,-0.01 -0.47,0.06 -0.91,0.16 -1.31,0.33 -0.41,0.17 -0.8,0.39 -1.17,0.67 -0.37,0.28 -0.72,0.62 -1.06,1.02l0 0.01c-0.25,0.28 -0.52,0.65 -0.82,1.1 -0.3,0.46 -0.62,1 -0.96,1.62l-3.84 6.92zm11.45 3.06l2.59 -4.67c0.43,-0.78 0.72,-1.5 0.86,-2.15 0.13,-0.63 0.12,-1.19 -0.03,-1.68 -0.15,-0.49 -0.41,-0.95 -0.79,-1.36 -0.38,-0.43 -0.88,-0.81 -1.49,-1.15 -0.44,-0.24 -0.88,-0.43 -1.31,-0.54 -0.43,-0.11 -0.85,-0.16 -1.26,-0.14 -0.41,0.01 -0.78,0.09 -1.12,0.22 -0.33,0.13 -0.63,0.32 -0.89,0.56l0 0c-0.17,0.17 -0.37,0.43 -0.61,0.79 -0.25,0.36 -0.52,0.82 -0.83,1.38l0 0 -2.56 4.62 7.44 4.12zm3.07 -4.4l-2.72 4.91 -0.14 0.25 -0.24 -0.14 -7.92 -4.39 -0.24 -0.13 0.13 -0.25 2.69 -4.86 0.01 0c0.31,-0.57 0.6,-1.05 0.85,-1.42 0.26,-0.39 0.49,-0.69 0.69,-0.88l0 0c0.32,-0.29 0.67,-0.52 1.07,-0.68 0.39,-0.15 0.82,-0.24 1.3,-0.26 0.47,-0.02 0.94,0.04 1.42,0.16 0.47,0.13 0.95,0.33 1.44,0.6 0.67,0.37 1.21,0.79 1.64,1.25 0.42,0.48 0.73,1 0.9,1.58 0.18,0.58 0.19,1.24 0.04,1.96 -0.15,0.7 -0.45,1.47 -0.92,2.3zm17.14 -4.23l-22.98 -10.72 -0.25 -0.11 0.12 -0.26 1.21 -2.6 0.12 -0.25 0.25 0.12 22.98 10.71 0.25 0.12 -0.12 0.25 -1.21 2.6 -0.12 0.25 -0.25 -0.11zm-22.49 -11.1l22.47 10.47 0.98 -2.09 -22.47 -10.48 -0.98 2.1zm26.02 3.95l-23.82 -8.67 -0.26 -0.09 0.1 -0.26 0.98 -2.7 0.1 -0.27 0.26 0.1 9.52 3.46 3.67 -10.08 -9.52 -3.47 -0.26 -0.09 0.09 -0.26 0.99 -2.7 0.09 -0.27 0.26 0.1 23.82 8.67 0.26 0.09 -0.09 0.26 -0.99 2.71 -0.09 0.26 -0.26 -0.1 -10.97 -3.99 -3.67 10.09 10.97 3.99 0.26 0.09 -0.1 0.26 -0.98 2.71 -0.1 0.26 -0.26 -0.1zm-23.37 -9.09l23.3 8.48 0.8 -2.18 -10.97 -4 -0.26 -0.09 0.1 -0.26 3.86 -10.61 0.09 -0.26 0.26 0.1 10.97 3.99 0.79 -2.18 -23.3 -8.48 -0.79 2.18 9.52 3.46 0.26 0.1 -0.09 0.26 -3.86 10.61 -0.1 0.26 -0.26 -0.1 -9.52 -3.47 -0.8 2.19z"/>
 </g>
</svg>
